/* XPM */
static xpm_string_t C_xpm[] = {
"50 50 2 1",
" 	c None",
".	c #FFFFFF",
"                     ............                 ",
"                   ................               ",
"                ......................            ",
"               .......................            ",
"              .........................           ",
"             ..........................           ",
"            ............       ........           ",
"            ...........         .......           ",
"           ...........            .....           ",
"          ...........              ....           ",
"          ..........                ...           ",
"          ..........                              ",
"          .........                               ",
"         ..........                               ",
"         .........                                ",
"         .........                                ",
"         .........                                ",
"         .........                                ",
"        ..........                                ",
"        ..........                                ",
"         .........                                ",
"         .........                                ",
"         .........                                ",
"         .........                                ",
"         ..........                               ",
"         ..........                               ",
"          ..........                              ",
"          ..........                ...           ",
"          ...........              ....           ",
"           ...........            .....           ",
"            ...........          ......           ",
"            .............      ........           ",
"             ..........................           ",
"              .........................           ",
"               .......................            ",
"                ......................            ",
"                   ...............                ",
"                     ...........                  ",
"                                                  ",
"                                                  ",
"                                                  ",
"                                                  ",
"                                                  ",
"                                                  ",
"                                                  ",
"                                                  ",
"                                                  ",
"                                                  ",
"                                                  ",
"                                                  "};
