/* XPM */
static xpm_string_t explosion_xpm[] = {
"50 50 660 2",
"  	c None",
". 	c #D95427",
"+ 	c #D84F29",
"@ 	c #D74B2A",
"# 	c #D74C29",
"$ 	c #D85128",
"% 	c #D95527",
"& 	c #D95327",
"* 	c #D85228",
"= 	c #DD6123",
"- 	c #DF6921",
"; 	c #DE6721",
"> 	c #DB5A25",
", 	c #D95228",
"' 	c #D84F28",
") 	c #E68618",
"! 	c #EFA40F",
"~ 	c #ED9D11",
"{ 	c #E06D20",
"] 	c #D74D29",
"^ 	c #DD6223",
"/ 	c #E68219",
"( 	c #E68518",
"_ 	c #E1711E",
": 	c #DC5E24",
"< 	c #E47C1B",
"[ 	c #E47D1B",
"} 	c #E57F1A",
"| 	c #E06D1F",
"1 	c #DE6821",
"2 	c #E37A1C",
"3 	c #E2761D",
"4 	c #DB5C25",
"5 	c #DA5626",
"6 	c #E2751D",
"7 	c #ED9C12",
"8 	c #EEA110",
"9 	c #E5801A",
"0 	c #D85226",
"a 	c #E2731B",
"b 	c #EEA20D",
"c 	c #EEA210",
"d 	c #EFA70D",
"e 	c #E88D13",
"f 	c #DB5B22",
"g 	c #DA5726",
"h 	c #DA5826",
"i 	c #DA5625",
"j 	c #D95225",
"k 	c #D95326",
"l 	c #D95325",
"m 	c #E88C16",
"n 	c #E78718",
"o 	c #DD6323",
"p 	c #DA5926",
"q 	c #D85028",
"r 	c #E47A0E",
"s 	c #EB9300",
"t 	c #EC9901",
"u 	c #ED9E0C",
"v 	c #EEA012",
"w 	c #ED9F10",
"x 	c #ED9C05",
"y 	c #EB9400",
"z 	c #E88A05",
"A 	c #E98D10",
"B 	c #E98F17",
"C 	c #E98F15",
"D 	c #E99015",
"E 	c #EA9315",
"F 	c #EA9215",
"G 	c #DD6216",
"H 	c #D6461C",
"I 	c #D74D1E",
"J 	c #D74A1A",
"K 	c #D95528",
"L 	c #E57F1B",
"M 	c #E17019",
"N 	c #D5451F",
"O 	c #D54628",
"P 	c #D95423",
"Q 	c #E17221",
"R 	c #F0B254",
"S 	c #F6CD70",
"T 	c #F3C166",
"U 	c #EEA420",
"V 	c #EB9500",
"W 	c #EC9A06",
"X 	c #F1B54B",
"Y 	c #F5C772",
"Z 	c #F5C766",
"` 	c #F0AB22",
" .	c #ED9D00",
"..	c #EEA30F",
"+.	c #EEA410",
"@.	c #EFA40C",
"#.	c #EFA40D",
"$.	c #EBA05E",
"%.	c #E38473",
"&.	c #D8512A",
"*.	c #E17A59",
"=.	c #E58A6B",
"-.	c #DA582C",
";.	c #D85123",
">.	c #E06B14",
",.	c #EEA317",
"'.	c #FBEAC4",
").	c #FFFFFF",
"!.	c #FFFEFC",
"~.	c #F2B952",
"{.	c #ED9F13",
"].	c #FAE3BB",
"^.	c #F3BD5D",
"/.	c #EC9700",
"(.	c #ED9E11",
"_.	c #EC9B0A",
":.	c #ED9C0C",
"<.	c #FBE8B8",
"[.	c #F7DBDA",
"}.	c #DA572A",
"|.	c #F1C1B1",
"1.	c #FAE9E3",
"2.	c #DB5E34",
"3.	c #D74B1C",
"4.	c #D85126",
"5.	c #E06C01",
"6.	c #ECA158",
"7.	c #F3CBC6",
"8.	c #E99547",
"9.	c #E78300",
"0.	c #ED9E06",
"a.	c #FBEAC7",
"b.	c #FCEDD3",
"c.	c #FAE1B7",
"d.	c #FAE5C0",
"e.	c #FCEED6",
"f.	c #F5CA7D",
"g.	c #ED9F14",
"h.	c #ED9D0E",
"i.	c #ED9D0F",
"j.	c #F3BC50",
"k.	c #F1B758",
"l.	c #E68314",
"m.	c #FAE6C2",
"n.	c #FDF6F9",
"o.	c #DC5F36",
"p.	c #DA5723",
"q.	c #DF6A23",
"r.	c #EDA22F",
"s.	c #F9DA8A",
"t.	c #FEF6DA",
"u.	c #F2B73E",
"v.	c #ED9F0A",
"w.	c #F1B448",
"x.	c #FCECD2",
"y.	c #FFFFFE",
"z.	c #FDF4E4",
"A.	c #FCEFD8",
"B.	c #FCF0DA",
"C.	c #FBEBCE",
"D.	c #FCF0DB",
"E.	c #FBEBCF",
"F.	c #ED9D10",
"G.	c #EC9904",
"H.	c #ED9E12",
"I.	c #EC9905",
"J.	c #EC9800",
"K.	c #EEA109",
"L.	c #F6CE91",
"M.	c #F1C1BA",
"N.	c #DB5C31",
"O.	c #D74B1B",
"P.	c #D85023",
"Q.	c #D85227",
"R.	c #D95328",
"S.	c #E06D13",
"T.	c #EEA31E",
"U.	c #FCECCB",
"V.	c #F9DFAF",
"W.	c #EEA520",
"X.	c #EC9801",
"Y.	c #FEF9F0",
"Z.	c #FFFDFB",
"`.	c #F2BB59",
" +	c #ED9B0B",
".+	c #EEA31C",
"++	c #FBE8C6",
"@+	c #EC9B09",
"#+	c #EC9802",
"$+	c #ED9F0F",
"%+	c #E27624",
"&+	c #D95530",
"*+	c #D95428",
"=+	c #D84E1F",
"-+	c #D74C1E",
";+	c #D85027",
">+	c #DC5C15",
",+	c #E5842B",
"'+	c #FDF7FC",
")+	c #FBE8C0",
"!+	c #EB9200",
"~+	c #F5C775",
"{+	c #FFFEFD",
"]+	c #F7D69A",
"^+	c #F5C776",
"/+	c #F6CD84",
"(+	c #ED9B0A",
"_+	c #F0AF3B",
":+	c #F6CD85",
"<+	c #F6CE87",
"[+	c #F0AE38",
"}+	c #ED9D0A",
"|+	c #EBA057",
"1+	c #E58C76",
"2+	c #E48973",
"3+	c #ECA98C",
"4+	c #E37818",
"5+	c #DB5B15",
"6+	c #D74E2A",
"7+	c #D74C1C",
"8+	c #DC6032",
"9+	c #F8DED5",
"0+	c #FAE1A6",
"a+	c #F3BE61",
"b+	c #FEFAF3",
"c+	c #FEFBF6",
"d+	c #F2B850",
"e+	c #F1B54A",
"f+	c #F1B241",
"g+	c #F4C570",
"h+	c #EC9600",
"i+	c #EEA21C",
"j+	c #FDEEC1",
"k+	c #F9E5E7",
"l+	c #DA582D",
"m+	c #EFB5A4",
"n+	c #FFFDDF",
"o+	c #F2B333",
"p+	c #D74C2A",
"q+	c #DE651F",
"r+	c #E99019",
"s+	c #F0AF40",
"t+	c #F0AE35",
"u+	c #EEA21B",
"v+	c #F2B74D",
"w+	c #FDF2E0",
"x+	c #FAE5BF",
"y+	c #F0AF3C",
"z+	c #F8D9A2",
"A+	c #F0AF3A",
"B+	c #F0AE37",
"C+	c #F3BF63",
"D+	c #EB9100",
"E+	c #ED9E10",
"F+	c #EC9803",
"G+	c #F0B03D",
"H+	c #FBECD0",
"I+	c #F9E5E9",
"J+	c #DA5B33",
"K+	c #E58126",
"L+	c #F6CC6D",
"M+	c #FDF3D9",
"N+	c #F3C173",
"O+	c #E57E0C",
"P+	c #DA5824",
"Q+	c #DD6322",
"R+	c #E6851A",
"S+	c #EFA50E",
"T+	c #ED9A01",
"U+	c #FAE3BA",
"V+	c #F9DDAC",
"W+	c #FCEDD2",
"X+	c #F2B954",
"Y+	c #F7D699",
"Z+	c #FDF4E5",
"`+	c #F6CE86",
" @	c #F6CC81",
".@	c #F8D9A1",
"+@	c #EB9600",
"@@	c #FAE5BE",
"#@	c #FDF1CE",
"$@	c #F2C297",
"%@	c #DA5930",
"&@	c #E16E00",
"*@	c #F0AB24",
"=@	c #F6CB68",
"-@	c #EA9207",
";@	c #DB5B24",
">@	c #DA5925",
",@	c #EDA015",
"'@	c #F1B548",
")@	c #EFA514",
"!@	c #E98E19",
"~@	c #D95627",
"{@	c #E47B1B",
"]@	c #EEA310",
"^@	c #EFA411",
"/@	c #EA9214",
"(@	c #DB5B25",
"_@	c #EB9713",
":@	c #F0A90E",
"<@	c #ED9F12",
"[@	c #EA9000",
"}@	c #EFAB32",
"|@	c #F9DCA9",
"1@	c #F6CD83",
"2@	c #F4C36C",
"3@	c #F4C168",
"4@	c #EC9701",
"5@	c #F0B13F",
"6@	c #F0AD36",
"7@	c #ED9E03",
"8@	c #E8890D",
"9@	c #D95526",
"0@	c #E5801C",
"a@	c #EFA70C",
"b@	c #EC9A05",
"c@	c #EFA409",
"d@	c #EB9714",
"e@	c #D85124",
"f@	c #D95524",
"g@	c #DD6422",
"h@	c #EC9A12",
"i@	c #EEA625",
"j@	c #FDF5E7",
"k@	c #EFA728",
"l@	c #EFA92C",
"m@	c #F4C26A",
"n@	c #FCEFD7",
"o@	c #FCEFD9",
"p@	c #FEF9EF",
"q@	c #F6D08C",
"r@	c #EEA523",
"s@	c #EFA30D",
"t@	c #E98F16",
"u@	c #E1731E",
"v@	c #EB9813",
"w@	c #EC9B12",
"x@	c #E78618",
"y@	c #D6471D",
"z@	c #E06D16",
"A@	c #DC6124",
"B@	c #EDA011",
"C@	c #EC9A07",
"D@	c #EDA118",
"E@	c #FBE8C7",
"F@	c #FAE6C1",
"G@	c #EFAA2E",
"H@	c #F1B242",
"I@	c #F9DFB1",
"J@	c #FBE7C5",
"K@	c #FBECCF",
"L@	c #EFAA2F",
"M@	c #F9DEAF",
"N@	c #FAE4BC",
"O@	c #EEA21A",
"P@	c #EEA204",
"Q@	c #EA9314",
"R@	c #D74E29",
"S@	c #EC9C12",
"T@	c #D85125",
"U@	c #E6917D",
"V@	c #EDA752",
"W@	c #ED9A00",
"X@	c #E27518",
"Y@	c #EDA010",
"Z@	c #ED9F11",
"`@	c #F3C066",
" #	c #F1B345",
".#	c #F3BF61",
"+#	c #F9E1B6",
"@#	c #FBE8C5",
"##	c #F8DBA6",
"$#	c #FCEED7",
"%#	c #F6CC7D",
"&#	c #EFA616",
"*#	c #E88C0E",
"=#	c #E1721E",
"-#	c #E47E1A",
";#	c #E88B17",
">#	c #DF6C20",
",#	c #D95227",
"'#	c #DE6B45",
")#	c #FBEFF2",
"!#	c #FBE5AE",
"~#	c #ED9F0E",
"{#	c #EEA41F",
"]#	c #FBE8C8",
"^#	c #FFFEFE",
"/#	c #F2B750",
"(#	c #FBE9CA",
"_#	c #FBE9C9",
":#	c #F8D79D",
"<#	c #FFFDFA",
"[#	c #F3BE5F",
"}#	c #E06E20",
"|#	c #EA9115",
"1#	c #E48768",
"2#	c #F7DCD3",
"3#	c #FAE6C0",
"4#	c #F0AE32",
"5#	c #ED9D02",
"6#	c #EDA016",
"7#	c #F6D18D",
"8#	c #FAE6C3",
"9#	c #FEFBF4",
"0#	c #FAE4BD",
"a#	c #F2B953",
"b#	c #EFA71A",
"c#	c #E98D0B",
"d#	c #DE6521",
"e#	c #E3771C",
"f#	c #E78818",
"g#	c #D64717",
"h#	c #EBA38B",
"i#	c #FEFAF4",
"j#	c #F0AD33",
"k#	c #E98F06",
"l#	c #E88A17",
"m#	c #EC9912",
"n#	c #EEA118",
"o#	c #F6CC82",
"p#	c #F6CF8A",
"q#	c #E98F12",
"r#	c #DE6522",
"s#	c #D64A2A",
"t#	c #E78817",
"u#	c #D64818",
"v#	c #E99D83",
"w#	c #F8D79C",
"x#	c #E47D1A",
"y#	c #E98E16",
"z#	c #EC9906",
"A#	c #F3C167",
"B#	c #F4C46F",
"C#	c #EC9B11",
"D#	c #EEA010",
"E#	c #D95626",
"F#	c #F3C8BA",
"G#	c #F8D999",
"H#	c #ED9B00",
"I#	c #E27313",
"J#	c #D74D2A",
"K#	c #F7D292",
"L#	c #F8D89F",
"M#	c #FDF5E5",
"N#	c #F5C97A",
"O#	c #F3BC5A",
"P#	c #FBEACB",
"Q#	c #F5C879",
"R#	c #EEA20F",
"S#	c #EFA50F",
"T#	c #E5821A",
"U#	c #DC5C19",
"V#	c #D6461B",
"W#	c #D84F27",
"X#	c #FAE8E3",
"Y#	c #FBEEF2",
"Z#	c #F4C885",
"`#	c #EC9B07",
" $	c #F0AB25",
".$	c #E6872C",
"+$	c #DC5D20",
"@$	c #E98F14",
"#$	c #EDA017",
"$$	c #F0AC32",
"%$	c #FAE1B6",
"&$	c #EFA82B",
"*$	c #FDF6E8",
"=$	c #F3BC5B",
"-$	c #EFA40E",
";$	c #E5822F",
">$	c #DC6140",
",$	c #D95529",
"'$	c #DF6E48",
")$	c #DE6D4E",
"!$	c #E47C1E",
"~$	c #EEA00F",
"{$	c #FBE7BE",
"]$	c #F5CB90",
"^$	c #E88900",
"/$	c #EC980A",
"($	c #F7D18F",
"_$	c #F1B64B",
":$	c #EFA829",
"<$	c #FCEED5",
"[$	c #FAE7C3",
"}$	c #EA8C00",
"|$	c #FCEED4",
"1$	c #F0B03E",
"2$	c #ED9D0C",
"3$	c #ED9D09",
"4$	c #F6D195",
"5$	c #F4CEC9",
"6$	c #DB5F35",
"7$	c #D4400E",
"8$	c #D43E10",
"9$	c #E37D39",
"0$	c #F8D688",
"a$	c #FDF5E1",
"b$	c #F5C96C",
"c$	c #F0AA21",
"d$	c #F8DAA4",
"e$	c #F3BD5E",
"f$	c #F4C269",
"g$	c #EEA111",
"h$	c #ED9E07",
"i$	c #FCE9B0",
"j$	c #FCF1F7",
"k$	c #DB5E3A",
"l$	c #D6491C",
"m$	c #D64716",
"n$	c #E8997F",
"o$	c #FEF9F1",
"p$	c #F0B142",
"q$	c #FBE7C4",
"r$	c #EC9B0D",
"s$	c #FAE4AE",
"t$	c #F9E7E7",
"u$	c #DC6237",
"v$	c #D74C1B",
"w$	c #D84F21",
"x$	c #DD653F",
"y$	c #E89984",
"z$	c #FDF6FF",
"A$	c #FEF7D8",
"B$	c #F2B95C",
"C$	c #E1722D",
"D$	c #E37816",
"E$	c #FCECD1",
"F$	c #FDF2DF",
"G$	c #F7D394",
"H$	c #E3790F",
"I$	c #E37E3D",
"J$	c #F8D8A9",
"K$	c #FFFFF8",
"L$	c #FBEAD7",
"M$	c #E99028",
"N$	c #E06C08",
"O$	c #D64617",
"P$	c #F6D3B6",
"Q$	c #F8D780",
"R$	c #EA9100",
"S$	c #DE6718",
"T$	c #E06E21",
"U$	c #F7D393",
"V$	c #FEF7EC",
"W$	c #EA8E00",
"X$	c #F7D79C",
"Y$	c #ED9D08",
"Z$	c #DB5911",
"`$	c #DF7059",
" %	c #FEFCFF",
".%	c #F0AA20",
"+%	c #EB9923",
"@%	c #F0AA1A",
"#%	c #E47E1B",
"$%	c #ED9F15",
"%%	c #EEA522",
"&%	c #EEA624",
"*%	c #DB5D24",
"=%	c #D64618",
"-%	c #E17653",
";%	c #FDF6F4",
">%	c #DF6912",
",%	c #E88A0C",
"'%	c #E78918",
")%	c #DE6622",
"!%	c #DF6B20",
"~%	c #EEA40F",
"{%	c #EFAB30",
"]%	c #EEA313",
"^%	c #ED9F08",
"/%	c #E78712",
"(%	c #E06D21",
"_%	c #D54318",
":%	c #E27B59",
"<%	c #FDF3D1",
"[%	c #F4C165",
"}%	c #EFA517",
"|%	c #EB9613",
"1%	c #DC6023",
"2%	c #DF6A21",
"3%	c #ED9C0D",
"4%	c #EB9811",
"5%	c #EC9B19",
"6%	c #EFA727",
"7%	c #EFAA27",
"8%	c #EFA926",
"9%	c #E06F27",
"0%	c #D64B28",
"a%	c #D74919",
"b%	c #E07654",
"c%	c #FAEAEA",
"d%	c #F4C56E",
"e%	c #EB9711",
"f%	c #EA9414",
"g%	c #EFA60F",
"h%	c #ED9C0B",
"i%	c #DF6910",
"j%	c #E38158",
"k%	c #FCF0DC",
"l%	c #FEF9E9",
"m%	c #FDF5E0",
"n%	c #FCEFD3",
"o%	c #E48665",
"p%	c #D5431D",
"q%	c #D95224",
"r%	c #DA5932",
"s%	c #DE6E55",
"t%	c #E9902A",
"u%	c #EA920B",
"v%	c #DD6222",
"w%	c #DC6024",
"x%	c #E2741D",
"y%	c #E68A4C",
"z%	c #FAE3BD",
"A%	c #FAE5B8",
"B%	c #FCF0D5",
"C%	c #EDAA7F",
"D%	c #DC5B0F",
"E%	c #D8502A",
"F%	c #DA5622",
"G%	c #DD6110",
"H%	c #E88B0E",
"I%	c #E06E1F",
"J%	c #E68419",
"K%	c #F6CB72",
"L%	c #E78605",
"M%	c #F0A80E",
"N%	c #E88D16",
"O%	c #E68319",
"P%	c #E58119",
"Q%	c #E06F1F",
"R%	c #E1701F",
"S%	c #DD6423",
"T%	c #E47D11",
"U%	c #EC9804",
"V%	c #F5CB7A",
"W%	c #F0AD2C",
"X%	c #EC9B0B",
"Y%	c #E88B16",
"Z%	c #F0A70E",
"`%	c #DF6A20",
" &	c #DD611B",
".&	c #FAE2AC",
"+&	c #EC9900",
"@&	c #EDA012",
"#&	c #E2771D",
"$&	c #DC5F24",
"%&	c #DE6820",
"&&	c #EFA50D",
"*&	c #E0701F",
"=&	c #DC5E25",
"-&	c #E37B1C",
";&	c #EA9208",
">&	c #EEA102",
",&	c #E88D17",
"'&	c #E5811A",
")&	c #DF6821",
"                                                                                                    ",
"                                                                                                    ",
"                              . . . . . . . .                                                       ",
"                        . . . . . . . . . . . . . . . + @ # $ % . . . .                             ",
"                        . & * * & . . & * * * * * * . = - ; > & . . . . .                           ",
"                      . . & $ $ , . . & $ $ $ $ $ ' . ) ! ~ { + . . . . . . .                       ",
"                    . . ] ^ / ( _ & # : < [ < < } | ' 1 2 3 4 # ' , . . . . . .                     ",
"                  . . . 5 6 7 8 9 * 0 a b ! c c d e f 5 g h > 4 4 i j . k l . . .                   ",
"                  . $ h m n ^ o p q r s t u v w x y z A B C D E F G H . I J k K . .                 ",
"                  . * g L M N O P Q R S T U V W X Y Z `  ...+.@.#.$.%.&.*.=.-.;.. . .               ",
"                . . . . . . K + >.,.'.).!.~.s {.].).).^./.(.(._.:.<.[.}.|.1.2.3.. . . .             ",
"            . . . . + 4.5.6.7.8.9.0.a.).).b.c.d.).).).e.f.g._.h.i.j.k.l.m.n.o.J . . . . .           ",
"            . . . & p.q.r.s.t.u.v.w.x.).y.z.A.B.C.D.).).E.F.G.H.(.I.J.K.L.M.N.O.P.Q.R.. .           ",
"            . . . ' S.T.U.V.W.X.^.Y.).).Z.`. +.+{.T y.).++@+#+H.(.F.$+8 %+&+*+=+-+;+R.. .           ",
"          . . . . $ >+,+'+)+y !+~+).).).{+]+^+/+(+_+y.].:+<+[+@+(.H.}+J.|+1+K 2+3+4+5+6+& .         ",
"          . . . . . 7+8+9+0+_.V a+b+).).).).).c+d+^.).e+f+).g+h+(.F.i.i+j+k+l+m+n+o+4+k . . .       ",
"          . . . & p+q+r+s+t+i.:.u+v+w+).).).x+y+z+Z.).A+B+).C+D+E+F+G+H+).I+J+K+L+M+N+O+P+$ .       ",
"        . . . & % Q+R+S+T+I.H.{.#+G.<+U+V+!.W+X+Y+Z+).`+ @)..@_+_.+@_+@@#@$@%@&@*@x+=@-@;@q .       ",
"      . . . . q >@C c (.(.(.(.(.(.(.g._.,@m.).{+w.'@y.).!.).).d.g.G.H.,@)@!@~@{@]@,@^@/@(@q .       ",
"      . . . . ] % _@:@(.(.(.(.(.<@E+[@}@|@1@2@3@4@5@).).).).).c+|@6@s I.7@8@9@0@a@b@c@d@(@q .       ",
"      . . . e@f@g@n h@(.(.(.(.(.i.H.i@1@j@5@y k@l@m@n@!.c+o@p@).).q@r@H.s@t@5 u@v@(.w@x@>@$ .       ",
"      . K k y@z@E A@_ 8 B@(.(.(.C@D@E@F@G@s H@w+).I@G@J@K@L@M@).).).N@O@P@Q@h R@; S@{@& . . .       ",
"      K 3.T@U@V@W@X@L Y@Z@(.(.(. +,@/+`@!+ #c.).A..#!++#@#X.##).).$#%#&#*#=#% = -#~ ;#>#5 ,#.       ",
"      k =+'#)#!#(.~#w (.(.(.(.(.(.(.{.:.{#]#).^#/#!+O@(#_#H.:#).<#[#h+F.}#@ $ } c Z@]@|#> q .       ",
"      3.1#2#).y.3#4#5#..Z@(.(.(.@+6#7#8#d.9#).^#6@u+0#).H+g.}@a#f+b#c#d#$ # & : e#c f#o % *         ",
"      g#h#).).i#F@j#k#l#m#Z@(.(.I.n#x.).).).).y.~+o#).Y.p#g.!+@+5@*@q#r#g@g@& s#> t#>## &           ",
"      u#v#).).w#(.b x#h y#..(.(.z#n#J@).).).).).c+).).A#C@(.V e+b+B#4@C#D#m E#+ % g % . .           ",
"        F#).).G#y H#I#J#;#! (.(.I.n#W+).{+K#L#).).M#N#r@s /.O#P#).Q#/.R#S#S@T#U#V#W#R.. .           ",
"          X#Y#Z#`# $.$+$@$]@(.(.C@#$V+).y.6@$$w+).%$X.h+E+&$++).*$=$#+(.(.D#-$;$>$,$k .             ",
"          '$)$!$~${$]$^$/$<@(.(.i.H.T.($)._$[@:$<$[$h+}$A+|$).<$1$6#h.(.(.2$3$4$5$6$I .             ",
"          7$8$9$0$).a$b$c$3$(.(.H.E+y [+d$o#e$^.o@z.N#f$z+).).@@C@/.H.(.g$h$V i$j$k$l$.             ",
"            m$n$).).).o$p$+@(.(.(.(.(.I.H.d.).).).).y.y.).).).q$n#z#(.(.~ r$:.s$t$u$v$.             ",
"            w$x$y$z$A$B$C$D$S#8 (.(.H.#+:.E$).).).F$A#~.G$).).x.n#I.8 S#H$I$J$K$L$M$N$              ",
"            K O$l P$Q$R$S$T$C ~ 8 (.(.@+g.U$V$).V$p#4@W$6@++w+X$6#Y$(.D Z$`$ %).|$.%                ",
"            . W#p +%@%i.D##%> D S#(.(.E+(.:.^+).g+:.E+h.$%%%&%T.H.S+|#*%=%-%;%).o@%%                ",
"            . , i >%,%]@'%)%q !%;#~%D#H.(.+@{%:+l@+@(.]%^%!+D+y X./%(%$ _%:%).<%[%}%                ",
"            . . & # _ |%1%] & # 2%m#Z@Z@(.H.3%I.3%<@Z@4%5%6%:$7%8%9%0%. a%b%c%d%s e%                ",
"              . . $ > o 5 q + q ~@r#f%g%(.(.i.h%i.c ~%i%j%k%l%m%n%o%p%& q%r%s%t%u%v%                ",
"                . . $ + $ w%{ h s#] x%Q@c c 8 8 ..h@( >%y%z%A%B%).C%D%Q.E%F%G%H%d@I%                ",
"                . . . . + x%~ )%R@. + I%Z@8 (.(.! x@. J%+.<@/.a#).K%L%g @ o h@c (.(.                ",
"                  . . . R@3 M%N%O%P%5 & Q%R%Q%Q%_ r#$ S%T%U%V%V+2@W%X%Y%r#% Q%|#Z%                  ",
"                  . . . q `%Q@c :@]@6 g + R@+ + + $ . @  &h..&].C@+&@&v@| ] ] #&f%                  ",
"                    . . & . $&Q@M%]@8 P%, $ & & & . . R@%&8 *@6%F.&&Q@w%. & & h 4                   ",
"                      . % R@$ *&< 2 9 R%& & . . . . . $ =&-&;&>&..,&Q%$ q . . q                     ",
"                            . * $ $ $ * . . . . . . . . $ q '&8 S@!%] . . . .                       ",
"                                                . . . . & * $&)&; >@$ . . .                         ",
"                                                  . . . . . $ R@+ * . . . .                         ",
"                                                      . . . . . . . .                               ",
"                                                                                                    ",
"                                                                                                    "};
