/* XPM */
static xpm_string_t n9_xpm[] = {
"50 50 2 1",
" 	c None",
".	c #FFFFFF",
"                                                  ",
"                                                  ",
"                                                  ",
"                                                  ",
"                                                  ",
"                                                  ",
"                                                  ",
"                  ..............                  ",
"             .......................              ",
"           ............................           ",
"        ................................          ",
"       ..........              ...........        ",
"      .........                   .........       ",
"     ........                      .........      ",
"    ........                        .........     ",
"   .........                         ........     ",
"   ........                           ........    ",
"   ........                           ........    ",
"   ........                           ........    ",
"   ........                           .........   ",
"   ........                           .........   ",
"   .........                          .........   ",
"    .........                        ..........   ",
"    ..........                     ............   ",
"     ...........                 ..............   ",
"       .............          ........ ........   ",
"        .............................  ........   ",
"           ........................    ........   ",
"              ..................      ........    ",
"                    ......            ........    ",
"                                      ........    ",
"                                     ........     ",
"                                     ........     ",
"                                    ........      ",
"                                   ........       ",
"                                  ........        ",
"                                .........         ",
"                              ..........          ",
"      ...                  ...........            ",
"      ...............................             ",
"      ............................                ",
"      .........................                   ",
"          .................                       ",
"                                                  ",
"                                                  ",
"                                                  ",
"                                                  ",
"                                                  ",
"                                                  ",
"                                                  "};
