/* XPM */
static xpm_string_t rato_xpm[] = {
"50 50 12 1",
" 	c None",
".	c #CFB12D",
"+	c #D0B12C",
"@	c #D0B12C",
"#	c #CFB12D",
"$	c #D0B12C",
"%	c #CFB12D",
"&	c #D0B12D",
"*	c #CFB12D",
"=	c #CFB12D",
"-	c #CFB12D",
";	c #CFB12D",
"                                                  ",
"                                                  ",
"                                                  ",
"                                                  ",
"                                                  ",
"                                                  ",
"                                                  ",
"                                                  ",
"                                                  ",
"                                                  ",
"      ;;  ;;**                                    ",
"      ;;  ;;**                                    ",
"      ....;;      ;;                              ",
"      ....;;      ;;                              ",
"              ;;        ;;..                      ",
"              ;;        ;;..                      ",
"                  ;;            ;;;;              ",
"                  ;;            ;;;;              ",
"        ;;      ;;    ==                ;;        ",
"        ;;      ;;    ==                ;;        ",
"                  ;;                              ",
"                  ;;                              ",
"          ;;        ;;      --          ..        ",
"          ;;        ;;      --          ..        ",
"          ##          --        ;;    ;;          ",
"          ##          --        ;;    ;;          ",
"                                ;;                ",
"                                ;;                ",
"            ;;              ;;  ;;                ",
"            ;;              ;;  ;;                ",
"                                ;;                ",
"                                ;;                ",
"                            ;;                    ",
"                            ;;                    ",
"              ;;                ..                ",
"              ;;                ..                ",
"                      ;;          ..              ",
"                      ;;          ..              ",
"                ;;  ..                            ",
"                ;;  ..                            ",
"                                                  ",
"                                                  ",
"                                                  ",
"                                                  ",
"                                                  ",
"                                                  ",
"                                                  ",
"                                                  ",
"                                                  ",
"                                                  "};
