/* XPM */
static xpm_string_t redLaser_xpm[] = {
"20 32 87 1",
" 	c None",
".	c #FF0000",
"+	c #FF0E0E",
"@	c #FF2E2E",
"#	c #FF3535",
"$	c #FF6060",
"%	c #FF1313",
"&	c #FF6363",
"*	c #FFA8A8",
"=	c #FF2828",
"-	c #FF8888",
";	c #FFCCCC",
">	c #FF3C3C",
",	c #FF0808",
"'	c #FFA6A6",
")	c #FFE1E1",
"!	c #FF4E4E",
"~	c #FF0101",
"{	c #FF1515",
"]	c #FFBCBC",
"^	c #FFEDED",
"/	c #FF5D5D",
"(	c #FF0303",
"_	c #FF2020",
":	c #FFCBCB",
"<	c #FFF4F4",
"[	c #FF6B6B",
"}	c #FF0505",
"|	c #FF2C2C",
"1	c #FFD4D4",
"2	c #FFF9F9",
"3	c #FF7979",
"4	c #FF0707",
"5	c #FFDDDD",
"6	c #FFFBFB",
"7	c #FF8383",
"8	c #FF0909",
"9	c #FF3E3E",
"0	c #FFE2E2",
"a	c #FFFDFD",
"b	c #FF8D8D",
"c	c #FF0A0A",
"d	c #FF4444",
"e	c #FFE5E5",
"f	c #FF9393",
"g	c #FF0B0B",
"h	c #FF4848",
"i	c #FFE6E6",
"j	c #FFFEFE",
"k	c #FF9898",
"l	c #FF0C0C",
"m	c #FF4A4A",
"n	c #FFE7E7",
"o	c #FF9A9A",
"p	c #FFE8E8",
"q	c #FF4747",
"r	c #FF9696",
"s	c #FF4141",
"t	c #FFE4E4",
"u	c #FF9191",
"v	c #FF3A3A",
"w	c #FFE0E0",
"x	c #FFFCFC",
"y	c #FF3131",
"z	c #FFD8D8",
"A	c #FFFAFA",
"B	c #FF7E7E",
"C	c #FF2626",
"D	c #FFCFCF",
"E	c #FFF7F7",
"F	c #FF7272",
"G	c #FF0606",
"H	c #FF1B1B",
"I	c #FFC5C5",
"J	c #FFF1F1",
"K	c #FF6464",
"L	c #FF0404",
"M	c #FF0F0F",
"N	c #FFB2B2",
"O	c #FF5656",
"P	c #FF0202",
"Q	c #FF4545",
"R	c #FF7777",
"S	c #FF3232",
"T	c #FF4D4D",
"U	c #FF8A8A",
"V	c #FF1D1D",
"                    ",
"                    ",
"                    ",
"                    ",
"        .+@..       ",
"       ..#$%..      ",
"      ...&*=..      ",
"     ....-;>...     ",
"     ...,')!~..     ",
"     ...{]^/(...    ",
"    ...._:<[}...    ",
"    ....|1234...    ",
"    ....#5678...    ",
"    ....90abc...    ",
"    ....deafg...    ",
"    ....hijkl...    ",
"    ....mnjol...    ",
"    ....hpjkl...    ",
"    ....qijrg...    ",
"    ....stauc...    ",
"    ....vwx-8...    ",
"    ....yzAB,...    ",
"    ....CDEFG...    ",
"     ...HIJKL...    ",
"     ...MNpOP...    ",
"     ...LkzQ...     ",
"      ...R]S...     ",
"      ...TUV..      ",
"       .._q8.       ",
"         Pg.        ",
"                    ",
"                    "};
