/* XPM */
static xpm_string_t rocket3_xpm[] = {
"50 50 388 2",
"  	c None",
". 	c #000000",
"+ 	c #020202",
"@ 	c #070707",
"# 	c #040404",
"$ 	c #2C2C2C",
"% 	c #BEBDBD",
"& 	c #626262",
"* 	c #050505",
"= 	c #414141",
"- 	c #FFFFFF",
"; 	c #939393",
"> 	c #080808",
", 	c #3F3F3F",
"' 	c #8F8E8E",
") 	c #8E8E8E",
"! 	c #070808",
"~ 	c #474747",
"{ 	c #949494",
"] 	c #101010",
"^ 	c #030303",
"/ 	c #8D8D8D",
"( 	c #ADADAD",
"_ 	c #D1D1D1",
": 	c #303030",
"< 	c #FDFDFD",
"[ 	c #5B5B5B",
"} 	c #FEFEFE",
"| 	c #575757",
"1 	c #38080C",
"2 	c #A8151D",
"3 	c #730F14",
"4 	c #440A0C",
"5 	c #AA151D",
"6 	c #670E13",
"7 	c #520A0E",
"8 	c #EC1A23",
"9 	c #A3141A",
"0 	c #610D0F",
"a 	c #F21A24",
"b 	c #921318",
"c 	c #510A0E",
"d 	c #E71922",
"e 	c #9F1419",
"f 	c #5F0D0F",
"g 	c #ED1A24",
"h 	c #901218",
"i 	c #E81923",
"j 	c #5F0C0F",
"k 	c #ED1A23",
"l 	c #50070B",
"m 	c #E60D17",
"n 	c #9E0A11",
"o 	c #515151",
"p 	c #5D0709",
"q 	c #EC0D17",
"r 	c #8E0A0F",
"s 	c #463A3B",
"t 	c #E5C0C2",
"u 	c #A58B8C",
"v 	c #464646",
"w 	c #636464",
"x 	c #696969",
"y 	c #9E9E9E",
"z 	c #606060",
"A 	c #171717",
"B 	c #655656",
"C 	c #EAC4C6",
"D 	c #967F80",
"E 	c #484848",
"F 	c #F7F7F7",
"G 	c #B3B2B3",
"H 	c #0E0F0F",
"I 	c #B4B4B4",
"J 	c #FCFCFC",
"K 	c #E0E0E0",
"L 	c #3A3A3A",
"M 	c #717170",
"N 	c #A3A3A3",
"O 	c #020000",
"P 	c #050101",
"Q 	c #B5B5B5",
"R 	c #FEFDFD",
"S 	c #FCF5F5",
"T 	c #FDEEEF",
"U 	c #FCF1F1",
"V 	c #FDFBFC",
"W 	c #E1E1E1",
"X 	c #707170",
"Y 	c #040101",
"Z 	c #39080A",
"` 	c #770F14",
" .	c #310709",
"..	c #0F0F0F",
"+.	c #FBF5F5",
"@.	c #E67D82",
"#.	c #EE272F",
"$.	c #E3494F",
"%.	c #F6DBDD",
"&.	c #FEFFFF",
"*.	c #717171",
"=.	c #0B0203",
"-.	c #790F14",
";.	c #5E0C11",
">.	c #801014",
",.	c #FE1D26",
"'.	c #6B0E13",
").	c #B2B1B2",
"!.	c #0D0D0D",
"~.	c #E87276",
"{.	c #ED0B14",
"].	c #E3343A",
"^.	c #F7DEDF",
"/.	c #393939",
"(.	c #6F6F6F",
"_.	c #1E0505",
":.	c #FF1D27",
"<.	c #CC1921",
"[.	c #7A0F13",
"}.	c #F11B24",
"|.	c #660D12",
"1.	c #F6F6F6",
"2.	c #BEBEBE",
"3.	c #000305",
"4.	c #141618",
"5.	c #B9B9BA",
"6.	c #F8D2D5",
"7.	c #F7A5AA",
"8.	c #F59FA5",
"9.	c #EB4F56",
"0.	c #ED131C",
"a.	c #E72B33",
"b.	c #F28E94",
"c.	c #F6B7BB",
"d.	c #E5E5E5",
"e.	c #464748",
"f.	c #777777",
"g.	c #1C0405",
"h.	c #F51B25",
"i.	c #C2181F",
"j.	c #650D12",
"k.	c #F4F4F4",
"l.	c #F1F2F1",
"m.	c #266188",
"n.	c #145686",
"o.	c #4B7999",
"p.	c #DCE2E5",
"q.	c #F29499",
"r.	c #EE252F",
"s.	c #ED262E",
"t.	c #EC1E27",
"u.	c #EC1922",
"v.	c #EB1B25",
"w.	c #EC252D",
"x.	c #EE242D",
"y.	c #EE5259",
"z.	c #F8F6F5",
"A.	c #839EAE",
"B.	c #105483",
"C.	c #0C507F",
"D.	c #BBC5CC",
"E.	c #C31820",
"F.	c #7A0C10",
"G.	c #F2151F",
"H.	c #660A10",
"I.	c #4A4949",
"J.	c #FAF8F6",
"K.	c #FFFFFE",
"L.	c #2E79AB",
"M.	c #1267A3",
"N.	c #538EB7",
"O.	c #E4EBEF",
"P.	c #F28E93",
"Q.	c #EC1620",
"R.	c #EC141D",
"S.	c #ED151E",
"T.	c #EC1720",
"U.	c #ED4850",
"V.	c #FCFAF8",
"W.	c #8EAFC4",
"X.	c #0F66A2",
"Y.	c #09629E",
"Z.	c #CFDCE2",
"`.	c #A7A5A5",
" +	c #1D0405",
".+	c #F5151F",
"++	c #C1131B",
"@+	c #7F5153",
"#+	c #FB9EA1",
"$+	c #5B383B",
"%+	c #24323A",
"&+	c #78A4C0",
"*+	c #7BA9C8",
"=+	c #8EAFC5",
"-+	c #9BBFD8",
";+	c #B4CDDE",
">+	c #F3F5F7",
",+	c #EB1E27",
"'+	c #E86167",
")+	c #F5A2A4",
"!+	c #ED8589",
"~+	c #EB2D35",
"{+	c #ED4950",
"]+	c #FDFDFC",
"^+	c #CFDEE7",
"/+	c #97BBD5",
"(+	c #9DC0D8",
"_+	c #77A2BD",
":+	c #7EABC9",
"<+	c #506C7E",
"[+	c #120809",
"}+	c #FDA0A3",
"|+	c #CA8083",
"1+	c #868888",
"2+	c #5B5D5D",
"3+	c #082132",
"4+	c #16679E",
"5+	c #1A6BA4",
"6+	c #DBDCDD",
"7+	c #EB2129",
"8+	c #E89B9F",
"9+	c #FAE3E4",
"0+	c #EE3E46",
"a+	c #EC151E",
"b+	c #3376A4",
"c+	c #176BA4",
"d+	c #104163",
"e+	c #0A0A0A",
"f+	c #D4D9D9",
"g+	c #858585",
"h+	c #0C2232",
"i+	c #3176A6",
"j+	c #347CAE",
"k+	c #DBDDDF",
"l+	c #F2989C",
"m+	c #ED2F38",
"n+	c #ED363E",
"o+	c #EAA1A5",
"p+	c #F9E0E1",
"q+	c #EF5057",
"r+	c #EE2C35",
"s+	c #ED585F",
"t+	c #4985AD",
"u+	c #337BAC",
"v+	c #204C69",
"w+	c #D5D5D5",
"x+	c #111111",
"y+	c #717070",
"z+	c #8D9499",
"A+	c #B9CEDD",
"B+	c #BBD2E1",
"C+	c #F2F3F4",
"D+	c #F9DCDE",
"E+	c #F8BABD",
"F+	c #F8BDC0",
"G+	c #F8E0E1",
"H+	c #FAF3F3",
"I+	c #F8C4C7",
"J+	c #F8B9BC",
"K+	c #F6C6C9",
"L+	c #C3D6E3",
"M+	c #BCD2E1",
"N+	c #A8B5BE",
"O+	c #6E6D6C",
"P+	c #6B6B6B",
"Q+	c #262626",
"R+	c #272727",
"S+	c #F6F6F7",
"T+	c #1B1B1B",
"U+	c #CACACA",
"V+	c #F5EEEE",
"W+	c #E1CCCE",
"X+	c #DCC6C7",
"Y+	c #EFE4E4",
"Z+	c #F7F3F3",
"`+	c #DDC7C7",
" @	c #DDC8C9",
".@	c #EBDFE0",
"+@	c #F0F0F0",
"@@	c #4D4D4D",
"#@	c #E1E1E0",
"$@	c #B2B3B3",
"%@	c #C3C4C4",
"&@	c #F8F9F9",
"*@	c #F5BDBF",
"=@	c #EB323A",
"-@	c #EC171F",
";@	c #F38B92",
">@	c #F8CDD0",
",@	c #ED1823",
"'@	c #E51B24",
")@	c #DE757A",
"!@	c #D8D7D7",
"~@	c #B3B3B3",
"{@	c #CACBCB",
"]@	c #828282",
"^@	c #F3F3F3",
"/@	c #F8F8F8",
"(@	c #F9F9F9",
"_@	c #FAFAFA",
":@	c #F6BABC",
"<@	c #EB2C33",
"[@	c #EC1019",
"}@	c #F4898D",
"|@	c #F7CBCE",
"1@	c #EE111C",
"2@	c #E4131D",
"3@	c #DE7076",
"4@	c #FDFCFC",
"5@	c #CECECE",
"6@	c #252525",
"7@	c #494949",
"8@	c #9C8283",
"9@	c #FEC7C9",
"0@	c #ED8C8E",
"a@	c #E8252D",
"b@	c #EC1119",
"c@	c #F8CBCF",
"d@	c #EC111C",
"e@	c #E6161F",
"f@	c #E1595E",
"g@	c #FCC9CA",
"h@	c #D1A8AA",
"i@	c #555152",
"j@	c #3C3C3C",
"k@	c #6A040A",
"l@	c #F60D17",
"m@	c #EB101A",
"n@	c #EC121A",
"o@	c #F98C91",
"p@	c #FED0D3",
"q@	c #EC121C",
"r@	c #ED141E",
"s@	c #F10C16",
"t@	c #AC0810",
"u@	c #090000",
"v@	c #010000",
"w@	c #6E0F14",
"x@	c #F71D26",
"y@	c #EF151E",
"z@	c #C1666B",
"A@	c #BABABA",
"B@	c #D1D2D2",
"C@	c #E7E7E7",
"D@	c #BFBFBF",
"E@	c #BABCBC",
"F@	c #B69597",
"G@	c #E9141E",
"H@	c #F31B24",
"I@	c #B1161D",
"J@	c #100203",
"K@	c #6F0F14",
"L@	c #F61B24",
"M@	c #311213",
"N@	c #1A1A1A",
"O@	c #242424",
"P@	c #1A1616",
"Q@	c #CF1720",
"R@	c #EF1A23",
"S@	c #720F15",
"T@	c #FD1D27",
"U@	c #FF1D28",
"V@	c #130203",
"W@	c #3E3E3E",
"X@	c #CD1820",
"Y@	c #F51B24",
"Z@	c #F11A24",
"`@	c #F91C25",
" #	c #B6161E",
".#	c #110203",
"+#	c #450A0E",
"@#	c #991319",
"##	c #921218",
"$#	c #921217",
"%#	c #98141A",
"&#	c #0C0202",
"*#	c #7A0F15",
"=#	c #941318",
"-#	c #951319",
";#	c #6D0E14",
">#	c #0A0102",
",#	c #404040",
"'#	c #908F8F",
")#	c #353535",
"!#	c #E3E3E3",
"~#	c #060606",
"{#	c #0E0E0E",
"]#	c #010101",
". . . . . . . . . . . . . . . . . . . . . . . + @ # . . . . . . . . . . . . . . . . . . . . . . . . ",
". . . . . . . . . . . . . . . . . . . . . . . $ % & * . . . . . . . . . . . . . . . . . . . . . . . ",
". . . . . . . . . . . . . . . . . . . . . . . = - ; > . . . . . . . . . . . . . . . . . . . . . . . ",
". . . . . . . . . . . . . . . . . . . . . . . , - ' > . . . . . . . . . . . . . . . . . . . . . . . ",
". . . . . . . . . . . . . . . . . . . . . . . , - ' > . . . . . . . . . . . . . . . . . . . . . . . ",
". . . . . . . . . . . . . . . . . . . . . . . , - ) > . . . . . . . . . . . . . . . . . . . . . . . ",
". . . . . . . . . . . . . . . . . . . . . . . , - ' > . . . . . . . . . . . . . . . . . . . . . . . ",
". . . . . . . . . . . . . . . . . . . . . . . , - ) ! . . . . . . . . . . . . . . . . . . . . . . . ",
". . . . . . . . . . . . . . . . . . . . . > @ ~ - { ] > ^ . . . . . . . . . . . . . . . . . . . . . ",
". . . . . . . . . . . . . . . . . . . . . ) / ( - _ ; ; : . . . . . . . . . . . . . . . . . . . . . ",
". . . . . . . . . . . . . . . . . . . . . - - - < - - - [ . . . . . . . . . . . . . . . . . . . . . ",
". . . . . . . . . . . . . . . . . . . . . - } } } } } - | . . . . . . . . . . . . . . . . . . . . . ",
". . . . . . . . . . . . . . . . . . . . . - } } } } } - | . . . . . . . . . . . . . . . . . . . . . ",
". . . . . . . . . . . . . . . . . . . . . - } } } } } - | . . . . . . . . . . . . . . . . . . . . . ",
". . . . . . . . . . . . . . . . . . . . . - } } } } } - | . . . . . . . . . . . . . . . . . . . . . ",
". . . . . . . . . . . . . . . . . . . . . - } } } } } - | . . . . . . . . . . . . . . . . . . . . . ",
". . . . . . . . . . . . . . . . . . . . . - } } } } } - | . . . . . . . . . . . . . . . . . . . . . ",
". . . . . . . . . . . . . . . . . . . . . - } } } } } - | . . . . . . . . . . . . . . . . . . . . . ",
". . . . . . . . . . . . . . . . . . . . . - } } } } } - | . . . . . . . . . . . . . . . . . . . . . ",
". . . . . . . . . . . . . . . . . . . . . - } } } } } - | . . . . . . . . . . . . . . . . . . . . . ",
". . . . . . . . . . . . 1 2 3 . . . . . . - } } } } } - | . . . . . 4 5 6 . . . . . . . . . . . . . ",
". . . . . . . . . . . . 7 8 9 . . . . . . - } } } } } - | . . . . . 0 a b . . . . . . . . . . . . . ",
". . . . . . . . . . . . c d e . . . . . . - } } } } } - | . . . . . f g h . . . . . . . . . . . . . ",
". . . . . . . . . . . . c i e . . . . . . - } } } } } - | . . . . . j k h . . . . . . . . . . . . . ",
". . . . . . . . . . . . l m n . . . . . . - } } } } } - o . . . . . p q r . . . . . . . . . . . . . ",
". . . . . . . . . . . . s t u . . * v w x - } } } } } - y z | A . . B C D . . . . . . . . . . . . . ",
". . . . . . . . . . . . E F G . . H I - J } } } } } } } < < K L . . M < N . . . . . . . . . . . . . ",
". . . . O P O . . . . . E F G . . H Q - } } R S T U V } } - W L . . X < N . . . . . . P Y . . . . . ",
". . . . Z `  .. . . . . E F G . . ..Q - } } +.@.#.$.%.&.} - W L . . *.< N . . . . . =.-.;.. . . . . ",
". . . . >.,.'.. . . . . E F ).. . !.I - - - J ~.{.].^.- - - W /.. . (.< N . . . . . _.:.<.. . . . . ",
". . . . [.}.|.. . . . . E 1.2.. 3.4.5.- 6.7.8.9.0.a.b.7.c.- d.e.. . f.< N . . . . . g.h.i.. . . . . ",
". . . . [.}.j.. . . . . E k.l.m.n.o.p.- q.r.s.t.u.v.w.x.y.- z.A.B.C.D.} N . . . . . g.h.E.. . . . . ",
". . . . F.G.H.. . . . . I.J.K.L.M.N.O.- P.u.u.Q.R.S.u.T.U.- V.W.X.Y.Z.- `.. . . . .  +.+++. . . . . ",
". . . . @+#+$+. . . . . %+&+*+=+-+;+>+- b.8 ,+'+)+!+~+T.{+- ]+^+/+(+_+:+<+. . . . . [+}+|+. . . . . ",
". . . . 1+- 2+. . . . . 3+4+5+6+- - K.- P.u.7+8+- 9+0+a+U.- } - - - b+c+d+. . . . . e+- f+. . . . . ",
". . . . g+- [ . . . . . h+i+j+k+- } } - l+m+n+o+- p+q+r+s+- } } } - t+u+v+. . . . . e+- w+. . . . . ",
". . . . g+- [ . . x+[ y+z+A+B+C+- } } &.D+E+F+G+- H+I+J+K+&.} } } - L+M+N+O+P+Q+. . e+- w+. . . . . ",
". . . . g+- [ . . R+_ - - - - - } - - - - - - - } &.- &.- - - - } } - - - - S+| . . e+- w+. . . . . ",
". . . . g+- | . . T+U+- } } } } - V+W+X+Y+} } } } } } &.Z+`+ @.@- } } } } - +@@@. . . - w+. . . . . ",
". . . . g+J #@$@$@%@&@- } } } } - *@=@-@;@} } } } } } &.>@,@'@)@- } } } } } - !@~@$@{@- w+. . . . . ",
". . . . ]@^@/@(@(@(@F F F F F _@- :@<@[@}@} } } } } } &.|@1@2@3@- 4@/@F F F F /@(@(@(@/@5@. . . . . ",
". . . . 6@~ E E E E E E E E 7@8@9@0@a@b@}@} } } } } } &.c@d@e@f@g@h@i@E E E E E E E E E j@. . . . . ",
". . . . . . . . . . . . . . . k@l@m@u.n@o@- - - < - - - p@q@8 r@s@t@u@. . . . . . . . . . . . . . . ",
". . . . . . . . . . . . . . v@w@x@8 8 y@z@A@A@B@- C@D@E@F@G@8 8 H@I@J@. . . . . . . . . . . . . . . ",
". . . . . . . . . . . . . . v@K@x@8 8 L@M@T+N@| - y O@T+P@Q@R@8 H@I@J@. . . . . . . . . . . . . . . ",
". . . . . . . . . . . . . . v@S@T@a a U@V@. . W@- ) @ . . X@Y@Z@`@ #.#. . . . . . . . . . . . . . . ",
". . . . . . . . . . . . . . v@+#@###$#%#&#. . , - ' > . . *#=###-#;#>#. . . . . . . . . . . . . . . ",
". . . . . . . . . . . . . . . . . . . . . . . ,#- '#> . . . . . . . . . . . . . . . . . . . . . . . ",
". . . . . . . . . . . . . . . . . . . . . . . )#!#f.@ . . . . . . . . . . . . . . . . . . . . . . . ",
". . . . . . . . . . . . . . . . . . . . . . . ~#N@{#]#. . . . . . . . . . . . . . . . . . . . . . . "};
