/* XPM */
static xpm_string_t SCORE_xpm[] = {
"100 50 2 1",
" 	c None",
".	c #FFFFFF",
"                                                                                                    ",
"                                                                                                    ",
"                                                                                                    ",
"                                                                                                    ",
"                                                                                                    ",
"                                                                                                    ",
"                                                                                                    ",
"                                                                                                    ",
"                                                                                                    ",
"                                                                                                    ",
"                                                                                                    ",
"                                                                                                    ",
"      .......              ......             .......           ............         ...............",
"   .............        ............        ...........         ...............      ...............",
"  ...............     ...............     ...............       ................     ...............",
" ................    ................    .................      ................     ...............",
" ......      ....    .......     ....    ......     ......      .....     .......    ......         ",
"......         ..   .......        ..   ......       ......     .....      ......    ......         ",
"......              ......          .   ......        .....     .....      ......    ......         ",
".......            ......              ......         ......    .....      ......    ......         ",
".........          ......              ......         ......    .....      .....     .............. ",
" ............      ......              ......         ......    .....     ......     .............. ",
" ..............    ......              ......         ......    ...............      .............. ",
"   .............   ......              ......         ......    ..............       .............. ",
"     ............  ......              ......         ......    .............        ......         ",
"         ........  ......              ......         ......    .............        ......         ",
"           ......  ......              ......         ......    .....   ......       ......         ",
".           .....   ......          .   ......        .....     .....   .......      ......         ",
"...         .....   .......        ..   ......       ......     .....    .......     ......         ",
".....      ......    .......     ....    ......     ......      .....     ......     ......         ",
"................     ................    .................      .....      ......    ...............",
"................      ...............     ...............       .....      .......   ...............",
" .............          ............        ...........         .....       .......  ...............",
"    .......               .......             .......           .....        ....... ...............",
"                                                                                                    ",
"                                                                                                    ",
"                                                                                                    ",
"                                                                                                    ",
"                                                                                                    ",
"                                                                                                    ",
"                                                                                                    ",
"                                                                                                    ",
"                                                                                                    ",
"                                                                                                    ",
"                                                                                                    ",
"                                                                                                    ",
"                                                                                                    ",
"                                                                                                    ",
"                                                                                                    ",
"                                                                                                    "};
