/* XPM */
static xpm_string_t shot_inverso_xpm[] = {
"50 50 278 2",
"  	c None",
". 	c #FF0000",
"+ 	c #EE0E71",
"@ 	c #EB0E67",
"# 	c #EF1B51",
"$ 	c #EB0F4E",
"% 	c #EB1061",
"& 	c #EB1D28",
"* 	c #E90D4D",
"= 	c #E31349",
"- 	c #F11C44",
"; 	c #D61A49",
"> 	c #F32041",
", 	c #E8155A",
"' 	c #DA1947",
") 	c #CA1D47",
"! 	c #FF0100",
"~ 	c #FF0300",
"{ 	c #FF0600",
"] 	c #FF0800",
"^ 	c #FF0700",
"/ 	c #FF0500",
"( 	c #FF0200",
"_ 	c #BF2148",
": 	c #FF0A00",
"< 	c #FF1500",
"[ 	c #FF2000",
"} 	c #FF2500",
"| 	c #FF2300",
"1 	c #FF1C00",
"2 	c #FF1400",
"3 	c #FF1000",
"4 	c #FF1100",
"5 	c #FF1300",
"6 	c #FF1200",
"7 	c #FF0D00",
"8 	c #AF2248",
"9 	c #FF0F00",
"0 	c #FF3E00",
"a 	c #FA4E17",
"b 	c #FB5311",
"c 	c #FF5000",
"d 	c #FF4700",
"e 	c #FF3A00",
"f 	c #FF3400",
"g 	c #FF3800",
"h 	c #FF3C00",
"i 	c #FF3B00",
"j 	c #FF3000",
"k 	c #FF1D00",
"l 	c #FF0C00",
"m 	c #B8223F",
"n 	c #A72644",
"o 	c #FF1600",
"p 	c #FF2900",
"q 	c #FF4900",
"r 	c #FF5C00",
"s 	c #FF6001",
"t 	c #FF6100",
"u 	c #FF6000",
"v 	c #FF5F02",
"w 	c #FD5A08",
"x 	c #FD570B",
"y 	c #FD5A07",
"z 	c #FE5D04",
"A 	c #FE5D03",
"B 	c #FE5A07",
"C 	c #FD4D12",
"D 	c #FF2100",
"E 	c #FF0900",
"F 	c #AC2643",
"G 	c #FF2600",
"H 	c #FF2D00",
"I 	c #FF3100",
"J 	c #FF3200",
"K 	c #FF5C04",
"L 	c #F74610",
"M 	c #EF2A20",
"N 	c #F43B16",
"O 	c #F74818",
"P 	c #FA5012",
"Q 	c #FB550E",
"R 	c #FC560D",
"S 	c #FC570B",
"T 	c #FE5C05",
"U 	c #FB5109",
"V 	c #F43917",
"W 	c #FB510F",
"X 	c #FF5E02",
"Y 	c #FF6002",
"Z 	c #FF6200",
"` 	c #FC5407",
" .	c #FF2200",
"..	c #FF0400",
"+.	c #FE5B05",
"@.	c #FF6101",
"#.	c #FF6202",
"$.	c #FE6501",
"%.	c #FF6700",
"&.	c #FF6600",
"*.	c #FF6400",
"=.	c #FF6300",
"-.	c #FB5208",
";.	c #F94D0C",
">.	c #FE5E03",
",.	c #FE6202",
"'.	c #FE6703",
").	c #FD7002",
"!.	c #FD7700",
"~.	c #FD7400",
"{.	c #FE6E00",
"].	c #FE6C00",
"^.	c #FE6B00",
"/.	c #FF6900",
"(.	c #FF5F01",
"_.	c #FA4F0A",
":.	c #FF1F00",
"<.	c #FE6800",
"[.	c #FC7800",
"}.	c #FA8A00",
"|.	c #FB8B00",
"1.	c #FB8602",
"2.	c #FA8605",
"3.	c #FB8504",
"4.	c #FC8001",
"5.	c #FD7500",
"6.	c #FA4D0B",
"7.	c #FA8F00",
"8.	c #F99900",
"9.	c #F8A003",
"0.	c #F8AC01",
"a.	c #F8A904",
"b.	c #F99801",
"c.	c #FC8100",
"d.	c #F94A0D",
"e.	c #FF1800",
"f.	c #FE5E02",
"g.	c #FD7600",
"h.	c #F89E00",
"i.	c #F8AF00",
"j.	c #F7BA00",
"k.	c #F8B700",
"l.	c #F9A200",
"m.	c #FB8600",
"n.	c #FE6D00",
"o.	c #FD5B05",
"p.	c #F74410",
"q.	c #F8490E",
"r.	c #FC7C00",
"s.	c #F99400",
"t.	c #F8A300",
"u.	c #F7B200",
"v.	c #F8B600",
"w.	c #FC5808",
"x.	c #F53F14",
"y.	c #FF0E00",
"z.	c #F74311",
"A.	c #FD5A06",
"B.	c #FB8400",
"C.	c #F8A500",
"D.	c #F8B500",
"E.	c #F8A400",
"F.	c #FB8900",
"G.	c #F53C15",
"H.	c #F53D15",
"I.	c #FD7200",
"J.	c #FA8E00",
"K.	c #F8A700",
"L.	c #F7B900",
"M.	c #F7B400",
"N.	c #F43817",
"O.	c #FB550A",
"P.	c #FF6500",
"Q.	c #F99600",
"R.	c #F8A100",
"S.	c #F7A700",
"T.	c #FA9200",
"U.	c #FA540A",
"V.	c #F33718",
"W.	c #FA550A",
"X.	c #F89B00",
"Y.	c #F8A200",
"Z.	c #F7A800",
"`.	c #F7B300",
" +	c #F8A600",
".+	c #FD7900",
"++	c #F84E0F",
"@+	c #FF1A00",
"#+	c #FB5708",
"$+	c #FA8B00",
"%+	c #F7A900",
"&+	c #F54515",
"*+	c #FB5807",
"=+	c #FD7100",
"-+	c #FA9000",
";+	c #F89F00",
">+	c #F7AB00",
",+	c #F7B600",
"'+	c #F99300",
")+	c #FD7800",
"!+	c #FC5907",
"~+	c #F23B1B",
"{+	c #FA5609",
"]+	c #F8A000",
"^+	c #F7AD00",
"/+	c #F7B800",
"(+	c #F7BB00",
"_+	c #FA9100",
":+	c #F74F10",
"<+	c #FF1B00",
"[+	c #A83427",
"}+	c #F74E0F",
"|+	c #FC7B00",
"1+	c #F99700",
"2+	c #F7AE00",
"3+	c #F8B000",
"4+	c #FA8D00",
"5+	c #FD7300",
"6+	c #FD5B06",
"7+	c #F9540D",
"8+	c #FD5E04",
"9+	c #FD6902",
"0+	c #FB8500",
"a+	c #F8AD00",
"b+	c #F8AE00",
"c+	c #FB8800",
"d+	c #FE6F00",
"e+	c #F65011",
"f+	c #B13229",
"g+	c #FF4300",
"h+	c #F86B0B",
"i+	c #F99000",
"j+	c #F8AB00",
"k+	c #FF5900",
"l+	c #9E3714",
"m+	c #FD5C00",
"n+	c #F89202",
"o+	c #F7A300",
"p+	c #F8AA00",
"q+	c #F8B100",
"r+	c #FF5E00",
"s+	c #AA371D",
"t+	c #FA7F00",
"u+	c #F89C00",
"v+	c #F8A701",
"w+	c #F7B801",
"x+	c #F8A202",
"y+	c #FA8F01",
"z+	c #FC7702",
"A+	c #FE5F00",
"B+	c #BF321C",
"C+	c #BD3517",
"D+	c #FB7900",
"E+	c #F68709",
"F+	c #F5850C",
"G+	c #F69206",
"H+	c #F5A906",
"I+	c #F6AE05",
"J+	c #F69C06",
"K+	c #F17C17",
"L+	c #F26619",
"M+	c #FE4E00",
"N+	c #C43511",
"O+	c #AF3824",
"P+	c #FD4700",
"Q+	c #F26114",
"R+	c #EE6C21",
"S+	c #EE7021",
"T+	c #F26415",
"U+	c #FE3800",
"V+	c #BC3224",
"W+	c #A93626",
"X+	c #FE2600",
"Y+	c #FE2800",
"Z+	c #FE1D00",
"`+	c #B43429",
" @	c #B2283A",
".@	c #AD2A32",
"                                                                                                    ",
"                                                                                                    ",
"                                                                                                    ",
"                                                    .                                               ",
"                                                  . . .                                             ",
"                                                  . . .                                             ",
"                                                + . . .                                             ",
"                                              @ . . . .               # $                           ",
"                                            % & . . . .               . . *                         ",
"                                            & . . . . .             . . . .                         ",
"                                            . . . . . .             . . . .                         ",
"                                          . . . . . . .             . . . . =                       ",
"                              -           . . . . . . .           . . . . . . ;                     ",
"                            . . >         . . . . . . . . .     , . . . . . . .                     ",
"                        ' . . . .         . . . . . . . . . . . . . . . . . . . )                   ",
"                        . . . . . .     . . . . ! ~ { ] ^ / ~ ( ( ( ( ! . . . . .                   ",
"                      _ . . . . . . . . . . . ~ : < [ } | 1 2 3 4 5 6 7 ^ ( . . . 8                 ",
"                      . . . . . . . ! ( ( ( / 9 } 0 a b c d e f g h i j k l ( . . m                 ",
"                    n . . . . ! ~ ^ : 7 9 3 o p q r s t u v w x y z A B C D E ! . .                 ",
"                    F . . . ! { 3 1 G H I J g q r t t t t t u s t t t t K L 2 ~ . .                 ",
"                    . . . . / M N O P Q R R S T s t t t t t t u t t t t u U k / . .                 ",
"                    . . . ( 7 V W T X v s Y s Z Z t t t t t s v s t t t u `  .^ . .                 ",
"                    . . . ..o L +.u s s @.#.$.%.&.*.=.Z =.=.@.Y @.t t t u -.D ^ . .                 ",
"                    . . . { k ;.>.u s Y ,.'.).!.~.{.].].^./.*.t Z Z t t (._.:.^ . .                 ",
"                    . . . ] [ _.X u v @.*.<.[.}.|.1.2.3.4.5.%.Z Z Z t t v 6.1 { . .                 ",
"                    . . . ] [ _.X u s Z Z *.5.7.8.9.0.a.b.c.].=.Z Z t t >.d.e./ . .                 ",
"                    . . . ^ k 6.f.t t t t *.g.7.h.i.j.k.l.m.n.=.Z Z t u o.p.5 ~ . .                 ",
"                    . . . / e.q.z t t t t &.r.s.t.u.j.v.t.m.^.Z t Z Z u w.x.y.( . .                 ",
"                    . . . ~ 4 z.A.t t t Z ^.B.8.C.u.j.D.E.F.n.Z t t Z u w.G.l ! . .                 ",
"                    . . . ! l H.w.u t t =.I.J.h.K.u.L.M.E.J.I.=.t t t t w.p : . . .                 ",
"                    . . . . E N.O.u t t P.r.Q.R.S.u.L.M.C.T.!.*.t t t u U.| ^ . . .                 ",
"                    . . . . ] V.W.u t t <.B.X.Y.Z.`.L.`. +s..+P.t t t (.++@+... . .                 ",
"                    . . . . ] V #+t t Z n.$+h.t.%+M.j.`. +s..+P.t Z t A &+4 ( . . .                 ",
"                    . . . . . p *+t t Z =+-+;+t.>+,+j.`.C.'+)+P.t Z t !+~+E . . . .                 ",
"                      . . . . . {+u t =.g.s.]+t.^+/+(+u.E._+g.*.t Z s :+<+... . .                   ",
"                      [+. . . . }+v t *.|+1+R.t.2+L.j.3+R.4+5+*.t Z 6+f y.! . . .                   ",
"                        . . . . . 7+8+9+0+X.R.t.a+/+L.b+h.c+d+=.Z @.e+:.{ . . . f+                  ",
"                        . . . . . p g+h+i+]+Y.t.j+/+/+a+h.F.{.Z Z k+f 3 ( . . .                     ",
"                        l+. . . . . } m+n+R.o+Y.p+/+j.q+Y.-+g.&.r+g+1 { . . .                       ",
"                          s+. . . . . . t+u+]+h.v+w+j.u.x+y+z+A+g+D : ! . . B+                      ",
"                            C+. . . . . . D+E+F+G+H+I+J+K+L+M+f <+: ( . . N+                        ",
"                              O+. . . . . . . P+Q+R+S+T+U+G @+y.{ ! . . V+                          ",
"                                W+. . . . . . . . X+Y+Z+9 ] ..( . . . `+                            ",
"                                    . . . . . . . ] E { ( . . . . .                                 ",
"                                         @. . . . ! ! . . . . . .@                                  ",
"                                            . . . . . . . .                                         ",
"                                                                                                    ",
"                                                                                                    ",
"                                                                                                    ",
"                                                                                                    "};
