/* XPM */
static xpm_string_t A_xpm[] = {
"50 50 37 1",
" 	c None",
".	c #F4F4F4",
"+	c #F5F5F5",
"@	c #F2F2F2",
"#	c #F0F0F0",
"$	c #EEEEEE",
"%	c #EDEDED",
"&	c #ECECEC",
"*	c #E9E9E9",
"=	c #E4E4E4",
"-	c #D5D5D5",
";	c #EBEBEB",
">	c #D8D8D8",
",	c #F7F7F7",
"'	c #F1F1F1",
")	c #EFEFEF",
"!	c #EAEAEA",
"~	c #E6E6E6",
"{	c #DEDEDE",
"]	c #F3F3F3",
"^	c #E7E7E7",
"/	c #E1E1E1",
"(	c #E3E3E3",
"_	c #F8F8F8",
":	c #F6F6F6",
"<	c #E8E8E8",
"[	c #E5E5E5",
"}	c #D7D7D7",
"|	c #E0E0E0",
"1	c #F9F9F9",
"2	c #D9D9D9",
"3	c #FAFAFA",
"4	c #FBFBFB",
"5	c #FDFDFD",
"6	c #FCFCFC",
"7	c #FEFEFE",
"8	c #FFFFFF",
"                   .+.@#$%&*=-                    ",
"                   ++.@#$&;*=>                    ",
"                  .,+.')%;!*~{                    ",
"                  +,+]')%;!*^/                    ",
"                  ,,+]')%;!*^(                    ",
"                  __:]')%;!!<[}                   ",
"                 ,__:.@)%&;;!^|                   ",
"                 111,+@#$%&&;*~2                  ",
"                1331_:]'#)%&&;!/                  ",
"                4443_:.]@#$%%%%~                  ",
"                56431,+.]'##)));|                 ",
"                75643_:.@@@@''@)<                 ",
"               7755641,+]].]]].@$                 ",
"               8756663_+].+::+++])                ",
"              88775664_  +,__,,,:.                ",
"              88777554_   1111111_                ",
"              88887555    13333333                ",
"              88888775    344444443               ",
"             888888887    466666666               ",
"             888888888    655555557               ",
"            888888888      557777788              ",
"            888888888      777777888              ",
"            88888888        88888888              ",
"            888888888      888888888              ",
"           88888888888888888888888888             ",
"           88888888888888888888888888             ",
"          8888888888888888888888888888            ",
"          8888888888888888888888888888            ",
"          8888888888888888888888888888            ",
"          8888888888888888888888888888            ",
"         888888888            888888888           ",
"         888888888            888888888           ",
"         888888888            8888888888          ",
"        888888888             8888888888          ",
"        888888888              888888888          ",
"        888888888              888888888          ",
"       888888888                888888888         ",
"        88888888                888888888         ",
"                                                  ",
"                                                  ",
"                                                  ",
"                                                  ",
"                                                  ",
"                                                  ",
"                                                  ",
"                                                  ",
"                                                  ",
"                                                  ",
"                                                  ",
"                                                  "};
