/* XPM */
static xpm_string_t alien_xpm[] = {
"50 50 240 2",
"  	c None",
". 	c #000000",
"+ 	c #1A1A1A",
"@ 	c #6F6F6F",
"# 	c #757575",
"$ 	c #737373",
"% 	c #747474",
"& 	c #212121",
"* 	c #181818",
"= 	c #707070",
"- 	c #767676",
"; 	c #3E3E3E",
"> 	c #F0F0F0",
", 	c #FFFFFF",
"' 	c #FDFDFD",
") 	c #4F4F4F",
"! 	c #393939",
"~ 	c #F7F7F7",
"{ 	c #FAFBFB",
"] 	c #4E4E4E",
"^ 	c #3B3B3B",
"/ 	c #EEEEEE",
"( 	c #FAF9F9",
"_ 	c #4C4C4C",
": 	c #363636",
"< 	c #F3F3F3",
"[ 	c #F9F8F8",
"} 	c #4A4A4A",
"| 	c #383838",
"1 	c #EAEAEA",
"2 	c #F6F5F5",
"3 	c #494949",
"4 	c #343434",
"5 	c #EDEDED",
"6 	c #464848",
"7 	c #FDFCFC",
"8 	c #484848",
"9 	c #313232",
"0 	c #F5F5F5",
"a 	c #FCFCFC",
"b 	c #4C4D4D",
"c 	c #3A3A3A",
"d 	c #E6E6E6",
"e 	c #F4F4F4",
"f 	c #0A0A0A",
"g 	c #0E0E0E",
"h 	c #101010",
"i 	c #080808",
"j 	c #070707",
"k 	c #0F0F0F",
"l 	c #0B0B0B",
"m 	c #3D3D3D",
"n 	c #E9E9E9",
"o 	c #F1F1F1",
"p 	c #131313",
"q 	c #535353",
"r 	c #575757",
"s 	c #545454",
"t 	c #9A9A9A",
"u 	c #B7B7B7",
"v 	c #B2B2B2",
"w 	c #BFBFBF",
"x 	c #686868",
"y 	c #585858",
"z 	c #BFBEBE",
"A 	c #B3B3B3",
"B 	c #B6B6B6",
"C 	c #A0A0A0",
"D 	c #565656",
"E 	c #BDBDBD",
"F 	c #9A9999",
"G 	c #828282",
"H 	c #D4D3D3",
"I 	c #050505",
"J 	c #B8B8B8",
"K 	c #8F8E8E",
"L 	c #777777",
"M 	c #CDCDCD",
"N 	c #121212",
"O 	c #8F8F8F",
"P 	c #CDCCCC",
"Q 	c #131414",
"R 	c #B0B0B0",
"S 	c #858585",
"T 	c #6C6D6D",
"U 	c #C8C7C7",
"V 	c #060707",
"W 	c #333333",
"X 	c #373737",
"Y 	c #2D2D2D",
"Z 	c #323232",
"` 	c #C5C5C5",
" .	c #A2A2A2",
"..	c #262626",
"+.	c #272727",
"@.	c #909090",
"#.	c #D5D5D5",
"$.	c #393A3A",
"%.	c #2C2C2C",
"&.	c #E1E1E1",
"*.	c #F9F9F9",
"=.	c #F6F6F6",
"-.	c #E7E7E7",
";.	c #E8E8E8",
">.	c #FBFBFB",
",.	c #EFEFEF",
"'.	c #EBEBEB",
").	c #464646",
"!.	c #FCFBFB",
"~.	c #4D4D4D",
"{.	c #383939",
"].	c #EBEAEA",
"^.	c #363737",
"/.	c #3C3C3C",
"(.	c #7D7D7D",
"_.	c #949494",
":.	c #808080",
"<.	c #8A8A8A",
"[.	c #7E7E7E",
"}.	c #B4B4B4",
"|.	c #C6C6C6",
"1.	c #818181",
"2.	c #898989",
"3.	c #9E9E9E",
"4.	c #F8F8F8",
"5.	c #FAFAFA",
"6.	c #9D9D9D",
"7.	c #7C7C7C",
"8.	c #878787",
"9.	c #FFFEFE",
"0.	c #555555",
"a.	c #5D5C5C",
"b.	c #848484",
"c.	c #303030",
"d.	c #ECECEC",
"e.	c #959595",
"f.	c #595959",
"g.	c #626363",
"h.	c #898888",
"i.	c #323333",
"j.	c #8E8E8E",
"k.	c #5D5D5D",
"l.	c #676767",
"m.	c #8D8C8C",
"n.	c #353535",
"o.	c #8B8B8B",
"p.	c #6E6E6E",
"q.	c #5E5E5E",
"r.	c #2E2E2E",
"s.	c #0C0C0C",
"t.	c #111111",
"u.	c #090909",
"v.	c #666666",
"w.	c #0D0D0D",
"x.	c #010101",
"y.	c #BBBBBB",
"z.	c #AFAFAF",
"A.	c #D6D6D6",
"B.	c #CECFCF",
"C.	c #ADADAD",
"D.	c #D0D0D0",
"E.	c #DCDCDC",
"F.	c #AFB0B0",
"G.	c #C1C2C2",
"H.	c #DDDDDD",
"I.	c #AEAEAE",
"J.	c #B5B5B5",
"K.	c #C0C0C0",
"L.	c #989898",
"M.	c #DBDBDB",
"N.	c #CACACA",
"O.	c #CECECE",
"P.	c #101111",
"Q.	c #C7C7C7",
"R.	c #CCCCCC",
"S.	c #D8D8D8",
"T.	c #E3E3E3",
"U.	c #121313",
"V.	c #141414",
"W.	c #424242",
"X.	c #505050",
"Y.	c #1B1B1B",
"Z.	c #2F2F2F",
"`.	c #E8E7E7",
" +	c #7A7A7A",
".+	c #797979",
"++	c #A8A8A8",
"@+	c #424343",
"#+	c #EDECEC",
"$+	c #484747",
"%+	c #EEEDED",
"&+	c #D4D4D4",
"*+	c #969696",
"=+	c #474747",
"-+	c #313131",
";+	c #F5F4F4",
">+	c #807F7F",
",+	c #D7D6D6",
"'+	c #C9C9C9",
")+	c #F2F2F2",
"!+	c #F7F6F6",
"~+	c #F3F4F4",
"{+	c #4F5050",
"]+	c #020202",
"^+	c #151515",
"/+	c #3F3F3F",
"(+	c #494A4A",
"_+	c #797A7A",
":+	c #CBCACA",
"<+	c #111212",
"[+	c #454545",
"}+	c #434343",
"|+	c #3D3E3E",
"1+	c #414141",
"2+	c #A0A1A1",
"3+	c #C4C4C4",
"4+	c #C3C3C3",
"5+	c #A7A7A7",
"6+	c #060606",
"7+	c #C8C8C8",
"8+	c #ACABAB",
"9+	c #040404",
"0+	c #DFDFDF",
"a+	c #1A1B1B",
"b+	c #D3D2D2",
"c+	c #D1D1D1",
"d+	c #171717",
"e+	c #D1D0D0",
"f+	c #161616",
"g+	c #B8B7B7",
"h+	c #DEDEDE",
"i+	c #0A0B0B",
"j+	c #C5C4C4",
"k+	c #D8D7D7",
"l+	c #949393",
"m+	c #D2D2D2",
"n+	c #CFCFCF",
"o+	c #AAAAAA",
"p+	c #A4A4A4",
"q+	c #191919",
"                                                                                                    ",
"                . . . . . .                                         . . . . . .                     ",
"                + @ # $ % &                                         * = - % # &                     ",
"                ; > , , ' )                                         ! ~ , , { ]                     ",
"                ^ / , , ( _                                         : < , , [ }                     ",
"                | 1 , , 2 3                                         4 5 , , 2 6                     ",
"                ^ > , , 7 8                                         9 0 , , a b                     ",
"                c d 0 e > ) f g h i .                       j h k l m n e 0 o }                     ",
"                p q r ) s t u v w x .                       y z A B C r ] D r *                     ",
"                . . . . . E , , , F .                       G , , , H I . . . .                     ",
"                        f J , , , K .                       L , , , M N                             ",
"                        l J , , , O .                       L , , , P Q                             ",
"                        . R , , , S .                     . T , , , U V                             ",
"                l W X Y Z ` , , ,  ...Z W W W W W W W W W +.@., , , #.$.%.: : g                     ",
"                X &.> n n *., , , =.-.1 1 1 1 1 1 1 1 1 1 ;.e , , , >.1 ;.,.'.).                    ",
"                m o , , , , , , , , , , , , , , , , , , , , , , , , , , , , !.~.                    ",
"                {.]., , , , , , , , , , , , , , , , , , , , , , , , , , , , =.8                     ",
"                ^.1 , , , , , , , , , , , , , , , , , , , , , , , , , , , , 0 ).                    ",
"        . . . . %.-., , , , , , , , , , , , , , , , , , , , , , , , , , , , < ^ . . . .             ",
"      . /.S (.% _.< , , , R :.<.[.}., , , , , , , , , , , , |.1.2.G 3.4., , 5.6.$ 7.8.8 .           ",
"        [., , , , , , , 9.0.. . . a., , , , , , , , , , , , b.. . . c.d., , , , , , , e..           ",
"        L , , , , , , , , f.. . . g., , , , , , , , , , , , h.. . . i.5 , , , , , , , j..           ",
"        # , , , , , , , , k.. . . l., , , , , , , , , , , , m.. . . n.,., , , , , , , o..           ",
"      . p., , , , , , , , D . . . q., , , , , , , , , , , , S . . . r.d., , , , , , , b..           ",
"s.t.h f - , , , , , , , 9.q.u.h i v., , , , , , , , , , , , <.f k f c 5 , , , , , , , <.f k t.w.x.  ",
"e.y.u z.A., , , , , , , , B.C.u C.D., , , , , , , , , , , , E.F.B R G.5., , , , , , , H.I.J.K.L.s.  ",
"M., , , , , , , , , , , , , , , , , , , , , , , , , , , , , , , , , , , , , , , , , , , , , , H.p   ",
"N., , , , , , , , , , , , , , , , , , , , , , , , , , , , , , , , , , , , , , , , , , , , , , O.h   ",
"N., , , , , , , , , , , , , , , , , , , , , , , , , , , , , , , , , , , , , , , , , , , , , , O.P.  ",
"N., , , , , , , , , , , , , , , , , , , , , , , , , , , , , , , , , , , , , , , , , , , , , , O.P.  ",
"N., , , n Q.R.Q.#.>., , , , , , , , , , , , , , , , , , , , , , , , , , , , ' S.Q.R.Q.T., , , O.P.  ",
"N., , , _.U.+ V.W.]., , , , , , , , , , , , , , , , , , , , , , , , , , , , 2 X.N Y.N [., , , O.P.  ",
"N., , , 8..     Z.`., , , , , , , , , , , , , , , , , , , , , , , , , , , , e ;     . = , , , O.P.  ",
"N., , , O .     ! '., , , , , , , , , , , , , , , , , , , , , , , , , , , , =.3        +, , , O.P.  ",
"N., , , O .     {.]., , , , , , , , , , , , , , , , , , , , , , , , , , , , =.8       .+, , , O.P.  ",
"N., , , O .     {.]., , , , , , , , , , , , , , , , , , , , , , , , , , , , =.8       .+, , , O.P.  ",
"N., , , O .     {.]., , >.++G <.<.<.<.<.<.<.<.<.<.<.<.<.<.<.<.<.o.G 3.~ , , =.8       .+, , , O.P.  ",
"N., , , O .     {.]., , e @+. . . . . . . . . . . . . . . . . . . . r.#+, , =.8       .+, , , O.P.  ",
"N., , , O .     {.]., , 2 $+                                        i.%+, , =.8       .+, , , O.P.  ",
"N., , , O .     {.]., , =.}                                         4 / , , =.8       .+, , , O.P.  ",
"&+, , , *+.     m o , , a =+                                        -+;+, , a b       >+, , , ,+N   ",
"'+)+,.!+O .     ! -.~+o %+{+s.p p p p p V.t.]+    . k ^+p p p p p w./+-.)+)+> (+      _+=.> 0 :+<+  ",
"X [+W.3 +..     g }+).|+1+2+'+3+3+3+3+4+O.5+<+    6+_.D.4+3+3+3+3+7+8+=+m [+).N     . & 3 W.=+| 9+  ",
". . . . .       . . . . . E , , , , , , , 0+a+    l |., , , , , , , b+I . . . .       . . . . .     ",
"                        l J , , , , , , , c+d+    i J , , , , , , , M p                             ",
"                        f u , , , , , , , e+f+    i g+, , , , , , , R.N                             ",
"                        w.3+, , , , , , , h+a+    i+j+, , , , , , , k+f+                            ",
"                        i l+m+3+3+3+3+3+n+o+N     6+_.c+3+3+3+3+3+D.p+h                             ",
"                        x.N Y.* * * * q++ ^+]+    . p Y.q+* * * q+Y.^+]+                            ",
"                                                                                                    "};
