/* XPM */
static xpm_string_t alien_xpm[] = {
"50 50 114 2",
"  	c #000000",
". 	c #080707",
"+ 	c #070807",
"@ 	c #080807",
"# 	c #03030A",
"$ 	c #080708",
"% 	c #070909",
"& 	c #0B0B0B",
"* 	c #100F0F",
"= 	c #0F100F",
"- 	c #120A12",
"; 	c #0E1111",
"> 	c #121212",
", 	c #171817",
"' 	c #171B1B",
") 	c #1B1C1B",
"! 	c #201F1F",
"~ 	c #1F201F",
"{ 	c #20201F",
"] 	c #1C1D21",
"^ 	c #1F2020",
"/ 	c #232323",
"( 	c #282727",
"_ 	c #252A25",
": 	c #2A2A25",
"< 	c #272828",
"[ 	c #2C2C2B",
"} 	c #2F302F",
"| 	c #30302F",
"1 	c #2F3333",
"2 	c #343434",
"3 	c #373837",
"4 	c #383837",
"5 	c #383738",
"6 	c #373838",
"7 	c #3B3C3B",
"8 	c #403F3F",
"9 	c #3D423D",
"0 	c #40403F",
"a 	c #3E3E42",
"b 	c #3F4040",
"c 	c #444444",
"d 	c #484747",
"e 	c #474847",
"f 	c #474748",
"g 	c #474848",
"h 	c #4C4C4C",
"i 	c #504F4F",
"j 	c #4F504F",
"k 	c #50504F",
"l 	c #4F5050",
"m 	c #545453",
"n 	c #585657",
"o 	c #575857",
"p 	c #585857",
"q 	c #585758",
"r 	c #5C5C5B",
"s 	c #60575F",
"t 	c #615F5F",
"u 	c #5D605D",
"v 	c #60605F",
"w 	c #615D61",
"x 	c #5F6060",
"y 	c #636362",
"z 	c #686767",
"A 	c #676867",
"B 	c #6B6B6B",
"C 	c #70706F",
"D 	c #706F70",
"E 	c #727272",
"F 	c #787877",
"G 	c #7A7A7A",
"H 	c #80807F",
"I 	c #828282",
"J 	c #8D8D8D",
"K 	c #908F8F",
"L 	c #91908F",
"M 	c #908F90",
"N 	c #8F9090",
"O 	c #939393",
"P 	c #989897",
"Q 	c #9A9A9A",
"R 	c #A09F9E",
"S 	c #9AA299",
"T 	c #A5A5A4",
"U 	c #ACACAB",
"V 	c #B0AFAF",
"W 	c #B0B0AF",
"X 	c #B3B2B2",
"Y 	c #B8B7B7",
"Z 	c #BABABA",
"` 	c #C0BFBF",
" .	c #C1C0BF",
"..	c #C0BFC0",
"+.	c #C3C1C2",
"@.	c #C8C7C7",
"#.	c #CCCBCB",
"$.	c #D7CFCF",
"%.	c #D0D0CF",
"&.	c #D4D4D3",
"*.	c #D8D7D7",
"=.	c #D7D8D7",
"-.	c #D9D9D4",
";.	c #DBDBDB",
">.	c #E0DFDF",
",.	c #E4E4E3",
"'.	c #E8E7E7",
").	c #E8E8E7",
"!.	c #ECEBEB",
"~.	c #F0EFEF",
"{.	c #F4F3F3",
"].	c #F8F7F7",
"^.	c #F8F7F8",
"/.	c #FFFFFF",
"                                                                                                    ",
"                                                                                                    ",
"                                                                                                    ",
"                                                                                                    ",
"                                                                                                    ",
"                    /./././.                                          ) /./././.                    ",
"                    /./././.                                          > /./././.                    ",
"                    /./././.                                            /./././.                    ",
"                    /./././.                                            /./././.                    ",
"                    /./././.                                          [ /./././.                    ",
"                            /./././.                          ^././././.                            ",
"                            /./././.                          ]././././.                            ",
"                            /./././.                          ^././././.                            ",
"                            /./././.                          ]././././.                            ",
"                            /./././.                          /././././.                            ",
"                    /./././././././././././././././././././././././././././././.                    ",
"                    /./././././././././././././././././././././././././././././.                    ",
"                    /./././././././././././././././././././././././././././././.                    ",
"                    /./././././././././././././././././././././././././././././.                    ",
"                    /./././././././././././././././././././././././././././././.                    ",
"          +././././././././.        /././././././././././././.&         /./././././././.            ",
"          +././././././././.        /././././././././././././.&         /./././././././.            ",
"          +././././././././.        /././././././././././././.)         /./././././././.            ",
"          +././././././././.        /././././././././././././.)         /./././././././.            ",
"  c 7 7 9 #././././././././.6 7 b b /././././././././././././.h 7 6 6 6 /./././././././.y , [ c     ",
"  /./././././././././././././././././././././././././././././././././././././././././././././././   ",
"  /././././././././././././././././././././././././././././././././././././././././././././././.{   ",
"  /././././././././././././././././././././././././././././././././././././././././././././././.)   ",
"  /./././././././././././././././././././././././././././././././././././././././././././././././   ",
"  /./././.!.O I G ;././././././././././././././././././././././././././././././.I I I I /././././   ",
"  /./././.G         /./././././././././././././././././././././././././././././.        /././././   ",
"  /./././.d         /./././././././././././././././././././././././././././././.        /./././.)   ",
"  /./././.<         /./././././././././././././././././././././././././././././.        /././././   ",
"  /./././.)         /./././././././././././././././././././././././././././././.        /././././   ",
"  /./././.2         /./././.+. .+. .+...Z  .Z X Z X X X X Y X +.@.,.]./././././.        /././././   ",
"  /./././.2         /./././.                                            /./././.        /./././.)   ",
"  /./././.c         /./././.                                            /./././.        /./././.{   ",
"  /./././.s         /./././.                                            /./././.        /././././   ",
"  /./././.c         /./././.                                            /./././.        /./././.)   ",
"                            /./././././././.{.        /././././././././.                            ",
"                            /./././././././.!.        /././././././././.                            ",
"                            /./././././././.!.        /././././././././.                            ",
"                            /./././././././.!.        /././././././././.                            ",
"                            /./././././././.!.        /././././././././.                            ",
"                                                                                                    ",
"                                                                                                    ",
"                                                                                                    ",
"                                                                                                    ",
"                                                                                                    ",
"                                                                                                    "};
