/* XPM */
static xpm_string_t asteroid_xpm[] = {
"50 50 294 2",
"  	c None",
". 	c #FF0000",
"+ 	c #DE7726",
"@ 	c #874817",
"# 	c #DB7525",
"$ 	c #FF892B",
"% 	c #DE7725",
"& 	c #FB862A",
"* 	c #F18129",
"= 	c #C46821",
"- 	c #572E0F",
"; 	c #120B03",
"> 	c #5A310F",
", 	c #E17826",
"' 	c #E57B27",
") 	c #D77324",
"! 	c #E87C27",
"~ 	c #F08028",
"{ 	c #BD6520",
"] 	c #7A4015",
"^ 	c #AD5D1D",
"/ 	c #E57A27",
"( 	c #96501A",
"_ 	c #AF5D1E",
": 	c #E47A26",
"< 	c #F28229",
"[ 	c #AC5B1D",
"} 	c #41230B",
"| 	c #A0551B",
"1 	c #E87C28",
"2 	c #F18229",
"3 	c #D17023",
"4 	c #97511A",
"5 	c #CB6D23",
"6 	c #E97D27",
"7 	c #DA7525",
"8 	c #DA7425",
"9 	c #DD7625",
"0 	c #E67B27",
"a 	c #E37926",
"b 	c #E27926",
"c 	c #CC6D22",
"d 	c #924D19",
"e 	c #A1551C",
"f 	c #E67A27",
"g 	c #C86B22",
"h 	c #D87324",
"i 	c #C56921",
"j 	c #552E0E",
"k 	c #3B200A",
"l 	c #663711",
"m 	c #A2561B",
"n 	c #DF7726",
"o 	c #DC7625",
"p 	c #DC7525",
"q 	c #EE8028",
"r 	c #BC6520",
"s 	c #814517",
"t 	c #B25F1E",
"u 	c #CF6E23",
"v 	c #EC7E28",
"w 	c #1A0F04",
"x 	c #000100",
"y 	c #D97425",
"z 	c #E07826",
"A 	c #DD7726",
"B 	c #D87424",
"C 	c #C16721",
"D 	c #CB6C23",
"E 	c #A0551C",
"F 	c #954F1A",
"G 	c #D37124",
"H 	c #B4601F",
"I 	c #5F3310",
"J 	c #371E09",
"K 	c #703C13",
"L 	c #E77B27",
"M 	c #DA7424",
"N 	c #E97C27",
"O 	c #D87425",
"P 	c #E77C27",
"Q 	c #E37927",
"R 	c #A8591D",
"S 	c #A85A1D",
"T 	c #DE7625",
"U 	c #A2561C",
"V 	c #7A4115",
"W 	c #BC6320",
"X 	c #F38329",
"Y 	c #EE7F28",
"Z 	c #D06F23",
"` 	c #CA6C22",
" .	c #CD6D23",
"..	c #DD7725",
"+.	c #E57B26",
"@.	c #D77224",
"#.	c #A3561C",
"$.	c #512B0E",
"%.	c #532D0E",
"&.	c #814516",
"*.	c #AA5A1D",
"=.	c #CE6E23",
"-.	c #EF8028",
";.	c #EA7D28",
">.	c #9B521A",
",.	c #46260C",
"'.	c #5C320F",
").	c #40230B",
"!.	c #351D08",
"~.	c #D97424",
"{.	c #E47A27",
"].	c #B5601F",
"^.	c #B9621F",
"/.	c #E47926",
"(.	c #F18128",
"_.	c #E97D28",
":.	c #9F551B",
"<.	c #42240C",
"[.	c #47260C",
"}.	c #201206",
"|.	c #48270C",
"1.	c #D97325",
"2.	c #894918",
"3.	c #B05E1E",
"4.	c #CC6C23",
"5.	c #45260C",
"6.	c #000000",
"7.	c #2E1A07",
"8.	c #B35F1F",
"9.	c #A4571C",
"0.	c #894917",
"a.	c #9D531B",
"b.	c #9E541B",
"c.	c #EA7D27",
"d.	c #DB7624",
"e.	c #8E4B18",
"f.	c #A95B1D",
"g.	c #D67224",
"h.	c #9C531B",
"i.	c #B8621F",
"j.	c #DC7626",
"k.	c #C06621",
"l.	c #F08029",
"m.	c #975119",
"n.	c #713C13",
"o.	c #5D3210",
"p.	c #653611",
"q.	c #DF7725",
"r.	c #F48229",
"s.	c #E07827",
"t.	c #AD5C1E",
"u.	c #582F0F",
"v.	c #351E09",
"w.	c #542D0E",
"x.	c #AD5D1E",
"y.	c #EB7D28",
"z.	c #E17926",
"A.	c #B3601F",
"B.	c #733C14",
"C.	c #633511",
"D.	c #381E09",
"E.	c #2C1807",
"F.	c #9F561B",
"G.	c #D37024",
"H.	c #D57224",
"I.	c #C56922",
"J.	c #391F0A",
"K.	c #6F3B13",
"L.	c #D87325",
"M.	c #ED7F28",
"N.	c #98511A",
"O.	c #C36921",
"P.	c #BA6320",
"Q.	c #AB5B1D",
"R.	c #C96B22",
"S.	c #E57A26",
"T.	c #8F4B18",
"U.	c #8E4C19",
"V.	c #99511A",
"W.	c #B96320",
"X.	c #ED7E28",
"Y.	c #E37A26",
"Z.	c #E07726",
"`.	c #904C19",
" +	c #874718",
".+	c #8B4918",
"++	c #9D541B",
"@+	c #954F19",
"#+	c #BC6420",
"$+	c #D67324",
"%+	c #CC6D23",
"&+	c #DE7626",
"*+	c #854617",
"=+	c #8E4B19",
"-+	c #8A4918",
";+	c #894818",
">+	c #884818",
",+	c #834517",
"'+	c #824417",
")+	c #8D4B18",
"!+	c #904D19",
"~+	c #C26721",
"{+	c #E67A26",
"]+	c #DB7425",
"^+	c #E27927",
"/+	c #D47124",
"(+	c #4B290D",
"_+	c #603310",
":+	c #97501A",
"<+	c #E27A26",
"[+	c #8F4C19",
"}+	c #864718",
"|+	c #924E19",
"1+	c #AB5C1D",
"2+	c #562E0E",
"3+	c #241405",
"4+	c #4E2B0E",
"5+	c #321C08",
"6+	c #804416",
"7+	c #914D19",
"8+	c #884817",
"9+	c #8B4A18",
"0+	c #D27024",
"a+	c #8F4C18",
"b+	c #241406",
"c+	c #030200",
"d+	c #6D3A13",
"e+	c #F2802A",
"f+	c #8C4A19",
"g+	c #B25E1E",
"h+	c #DF7826",
"i+	c #ED7F29",
"j+	c #804415",
"k+	c #844616",
"l+	c #A3571C",
"m+	c #DC7526",
"n+	c #8C4A18",
"o+	c #F58229",
"p+	c #F6832A",
"q+	c #C46822",
"r+	c #C66922",
"s+	c #814416",
"t+	c #7F4316",
"u+	c #A3571B",
"v+	c #A1551B",
"w+	c #9E541A",
"x+	c #944E19",
"y+	c #934E19",
"z+	c #9A521A",
"A+	c #B7621F",
"B+	c #8F4B19",
"C+	c #703B14",
"D+	c #7B4215",
"E+	c #9F541B",
"F+	c #9B521B",
"G+	c #8E4C18",
"H+	c #864618",
"I+	c #964F1A",
"J+	c #8C4B18",
"K+	c #623511",
"L+	c #613410",
"M+	c #5B310F",
"N+	c #733E14",
"O+	c #8D4B19",
"P+	c #AA5B1D",
"Q+	c #3B210A",
"R+	c #331C08",
"S+	c #3A1F0A",
"T+	c #A5581C",
"U+	c #261405",
"V+	c #020200",
"W+	c #44250C",
"X+	c #834617",
"Y+	c #9A521B",
"Z+	c #AB5B1C",
"`+	c #A6581D",
" @	c #6A3812",
".@	c #46250C",
"+@	c #41230A",
"@@	c #5A300F",
"#@	c #884917",
"$@	c #A6581C",
"%@	c #A1561B",
"&@	c #9D541A",
"*@	c #9E531B",
"=@	c #A1561C",
"-@	c #A8591C",
";@	c #8D4A19",
">@	c #A0561C",
",@	c #9B531B",
"'@	c #A95A1D",
")@	c #914C1A",
"!@	c #A4581C",
"~@	c #A7591C",
"                                                                                                    ",
"                                                                                                    ",
"                                                                                                    ",
"                                                                                                    ",
"                                                                                                    ",
"                                                . . .                                               ",
"                        . . . .               . . . . . . .                                         ",
"                        . . . . . . . . . . . . + @ . . . . . . . . .                               ",
"                      . . # $ % . . . . . . . & * = - ; > . . . . . .                               ",
"                    . . , ' ) ! ~ { ] ^ / # ( _ : < [ } | 1 2 3 4 5 . .                             ",
"                    . 6 ! 7 # 8 9 0 ! 0 a b c d e ! f g h ~ i j k l m . .                           ",
"                  . . a n # o o # # 9 p 7 7 q r s t u ' v v { k w x } . . .                         ",
"                . . v a y 9 0 0 z o 7 # # # A B C D E F g 0 G H I J K L . .                         ",
"              . . M N O P Q R S o p p # # # 8 T / 0 ' U V W X Y Z `  .L ... .                       ",
"              . . +.7 9 @.#.$.%.&.Z : # # # # # # 8 a h *.` =.= Y , n 7 -.. .                       ",
"              . . % o ;.>.,.'.).!.~.{.# # # # # # # 8 n P / =.].^./.N n (.. .                       ",
"              . . % o _.:.<.[.}.|.1.0 # # # # # 9 o # # # 8 P O 2.3.4.) ... .                       ",
"              . . % # b y 5.6.7.8.z % # # 7 b a , b 9 8 # # n G i 9.0.a.b.. .                       ",
"            . . c.d.# o ! t e.f.+ a y # 7 z 7 g.h.i.Y z 8 # 8 % c.j.Z 9.k.. .                       ",
"            . . . 0 # 7 7 N l.N 9 8 # # z # m.n.o.p.H n q.# # # 7 n b , (.. .                       ",
"              . . r.8 # # p o o # # # 9 s.t.u.v.> w.o.x.' o # # # # # o % . .                       ",
"              . . y.b , o 7 # # # # # o z.A.B.C.D.E.D.F.0 o # # # # # # y < . .                     ",
"              . . G.# H.n 9 # # # # # # + 7 o I.J.6.K.L., # # # # # # # # M.. .                     ",
"              . . b.m N.O.v n + n n o 7 8 T ! z P.Q.R.S.# 7 9 z % # # # # -.. .                     ",
"              . . >.T.U.V.W.T % o # , / : o y o ! X.Y.7 7 9 % Z.n b # # # L . .                     ",
"              . . `. +2. +.+b.++a.@+#+$+%+&+o # # # # # # c.i *+Q.L.8 p # 8 (..                     ",
"              . . =+-+-+;+>+,+,+,+'+>+)+!+~+{+]+# # # # ^+/+)+(+_+:+z + # 7 <+. .                   ",
"              . . [+-+-+-+-+-+-+-+-+}+*+|+1+n T # # # , P 2+3+4+5+6+;.+ # # p . .                   ",
"              . . 7+2.-+-+-+-+-+-+-+-+8+9+7+0+P 8 # # n ! a+b+c+6.d+e++ # # 7 6 .                   ",
"              . . f+)+-+-+-+-+-+-+-+-+.+*+*+g+% T # # 8 h+i+Q.j+k+l+z + # # # m+. .                 ",
"              . . . [+n+-+-+-+-+-+-+-+-+-+ +*+R.y.z % 7 y T v o+p+v , , q.z 9 + . .                 ",
"                  . . U.[+=+=+=+[+9+2.-+-+ +,+q+b H., v L Y.r+3 C t.*.C &+H.h+X.. .                 ",
"                    . . ,+s+s+s+t+-+n+-+-+>+[+u+v+w+l+= ) i.x+b.V.y+y+z+U z+A+g . .                 ",
"                      . . . . . . . B+.+-+2.-+N.e 7+K C+D+`.#.>.a.E+E+h.z+F+:+G+*.. .               ",
"                          . . . . . . `.2.-+H+I+*.J+K+L+M+N+F+m b.b.b.b.b.b.b.:.I+. .               ",
"                                    . . O+-+ +:+P+7+Q+R+S+p.7+T+b.b.b.b.b.b.b.b.#.. .               ",
"                                    . . 7+-+ +:+Q.@+U+6.V+W+X+Y+U b.b.b.b.b.b.++Z+.                 ",
"                                      . . 9+ +:+`+E+ @.@+@@@#@a.e b.b.b.b.b.++$@. .                 ",
"                                      . . n+H+F %@l+4 2.( &@*@=@a.v+U a.b.a.-@. .                   ",
"                                      . . ;@;+>.| E+>@a.:.9.T+$@$@,@V.'@T+'@z+. .                   ",
"                                      . . )@7+%@E+b.E+:.=@. . . . . . . . . . . .                   ",
"                                        . . Y+!@b.b.++l+. . . . . . . . . . .                       ",
"                                        . . . ~@!@T+'@. . .                                         ",
"                                            . . |+F . . .                                           ",
"                                              . . . . .                                             ",
"                                                . . .                                               ",
"                                                                                                    ",
"                                                                                                    ",
"                                                                                                    ",
"                                                                                                    "};
