/* XPM */
static xpm_string_t M_xpm[] = {
"50 50 2 1",
" 	c None",
".	c #FFFFFF",
"       ...........               ...........      ",
"       ...........               ...........      ",
"       ...........              ............      ",
"       ...........              ............      ",
"       ............             ............      ",
"       ............            .............      ",
"       .............           .............      ",
"       .............          ..............      ",
"       .............          ..............      ",
"       ..............         ..............      ",
"       ..............         ..............      ",
"       ...............       ...............      ",
"       ...............       ...............      ",
"       ...............      ................      ",
"       ................     ................      ",
"       ................     ................      ",
"       ......... .......   ...... ..........      ",
"       ........   ......   .....  ..........      ",
"       ........   ......  ......   .........      ",
"       ........   ......  ......   .........      ",
"       ........   ..............   .........      ",
"       ........    ............    .........      ",
"       ........    ............    .........      ",
"       ........     ..........     .........      ",
"       ........     ..........     .........      ",
"       ........     ..........     .........      ",
"       ........      .........     .........      ",
"       ........      ........      .........      ",
"       ........       .......      .........      ",
"       ........       ......       .........      ",
"       ........                    .........      ",
"       ........                    .........      ",
"       ........                    .........      ",
"       ........                    .........      ",
"       ........                    .........      ",
"       ........                    .........      ",
"       ........                    .........      ",
"       ........                    .........      ",
"                                                  ",
"                                                  ",
"                                                  ",
"                                                  ",
"                                                  ",
"                                                  ",
"                                                  ",
"                                                  ",
"                                                  ",
"                                                  ",
"                                                  ",
"                                                  "};
