/* XPM */
static xpm_string_t shot_xpm[] = {
"50 50 278 2",
"  	c None",
". 	c #FF0000",
"+ 	c #AD2A32",
"@ 	c #FF0100",
"# 	c #B2283A",
"$ 	c #FF0200",
"% 	c #FF0600",
"& 	c #FF0900",
"* 	c #FF0800",
"= 	c #B43429",
"- 	c #FF0400",
"; 	c #FF0F00",
"> 	c #FE1D00",
", 	c #FE2800",
"' 	c #FE2600",
") 	c #A93626",
"! 	c #BC3224",
"~ 	c #FF0E00",
"{ 	c #FF1A00",
"] 	c #FF2600",
"^ 	c #FE3800",
"/ 	c #F26415",
"( 	c #EE7021",
"_ 	c #EE6C21",
": 	c #F26114",
"< 	c #FD4700",
"[ 	c #AF3824",
"} 	c #C43511",
"| 	c #FF0A00",
"1 	c #FF1B00",
"2 	c #FF3400",
"3 	c #FE4E00",
"4 	c #F26619",
"5 	c #F17C17",
"6 	c #F69C06",
"7 	c #F6AE05",
"8 	c #F5A906",
"9 	c #F69206",
"0 	c #F5850C",
"a 	c #F68709",
"b 	c #FB7900",
"c 	c #BD3517",
"d 	c #BF321C",
"e 	c #FF2100",
"f 	c #FF4300",
"g 	c #FE5F00",
"h 	c #FC7702",
"i 	c #FA8F01",
"j 	c #F8A202",
"k 	c #F7B200",
"l 	c #F7BA00",
"m 	c #F7B801",
"n 	c #F8A701",
"o 	c #F89E00",
"p 	c #F8A000",
"q 	c #F89C00",
"r 	c #FA7F00",
"s 	c #AA371D",
"t 	c #FF1C00",
"u 	c #FF5E00",
"v 	c #FF6600",
"w 	c #FD7600",
"x 	c #FA9000",
"y 	c #F8A200",
"z 	c #F8B100",
"A 	c #F7B800",
"B 	c #F8AA00",
"C 	c #F7A300",
"D 	c #F8A100",
"E 	c #F89202",
"F 	c #FD5C00",
"G 	c #FF2500",
"H 	c #9E3714",
"I 	c #FF1000",
"J 	c #FF5900",
"K 	c #FF6200",
"L 	c #FE6E00",
"M 	c #FB8900",
"N 	c #F8AD00",
"O 	c #F8AB00",
"P 	c #F8A300",
"Q 	c #F99000",
"R 	c #F86B0B",
"S 	c #FF2900",
"T 	c #B13229",
"U 	c #FF1F00",
"V 	c #F65011",
"W 	c #FF6101",
"X 	c #FF6300",
"Y 	c #FE6F00",
"Z 	c #FB8800",
"` 	c #F8AE00",
" .	c #F7B900",
"..	c #F89B00",
"+.	c #FB8500",
"@.	c #FD6902",
"#.	c #FD5E04",
"$.	c #F9540D",
"%.	c #FD5B06",
"&.	c #FF6100",
"*.	c #FF6400",
"=.	c #FD7300",
"-.	c #FA8D00",
";.	c #F8B000",
">.	c #F7AE00",
",.	c #F99700",
"'.	c #FC7B00",
").	c #FF5F02",
"!.	c #F74E0F",
"~.	c #A83427",
"{.	c #F74F10",
"].	c #FF6001",
"^.	c #FA9100",
"/.	c #F8A400",
"(.	c #F7BB00",
"_.	c #F7AD00",
":.	c #F99400",
"<.	c #FF6000",
"[.	c #FA5609",
"}.	c #F23B1B",
"|.	c #FC5907",
"1.	c #FF6500",
"2.	c #FD7800",
"3.	c #F99300",
"4.	c #F8A500",
"5.	c #F7B300",
"6.	c #F7B600",
"7.	c #F7AB00",
"8.	c #F89F00",
"9.	c #FD7100",
"0.	c #FB5807",
"a.	c #FF1100",
"b.	c #F54515",
"c.	c #FE5D03",
"d.	c #FD7900",
"e.	c #F8A600",
"f.	c #F7B400",
"g.	c #F7A900",
"h.	c #FA8B00",
"i.	c #FE6D00",
"j.	c #FB5708",
"k.	c #F43917",
"l.	c #F84E0F",
"m.	c #FF5F01",
"n.	c #F7A800",
"o.	c #FB8400",
"p.	c #FE6800",
"q.	c #FA550A",
"r.	c #F33718",
"s.	c #FF0700",
"t.	c #FF2300",
"u.	c #FA540A",
"v.	c #FD7700",
"w.	c #FA9200",
"x.	c #F7A700",
"y.	c #F99600",
"z.	c #FC7C00",
"A.	c #FB550A",
"B.	c #F43817",
"C.	c #FC5808",
"D.	c #FD7200",
"E.	c #FA8E00",
"F.	c #F8A700",
"G.	c #F53D15",
"H.	c #FF0C00",
"I.	c #F53C15",
"J.	c #F8B500",
"K.	c #F99900",
"L.	c #FE6B00",
"M.	c #FD5A06",
"N.	c #F74311",
"O.	c #FF0300",
"P.	c #F53F14",
"Q.	c #FB8600",
"R.	c #F8B600",
"S.	c #FE5D04",
"T.	c #F8490E",
"U.	c #FF1800",
"V.	c #FF0500",
"W.	c #FF1300",
"X.	c #F74410",
"Y.	c #FD5B05",
"Z.	c #F9A200",
"`.	c #F8B700",
" +	c #F8AF00",
".+	c #FA8F00",
"++	c #FE5E02",
"@+	c #FA4D0B",
"#+	c #FF1D00",
"$+	c #F94A0D",
"%+	c #FE5E03",
"&+	c #FE6C00",
"*+	c #FC8100",
"=+	c #F99801",
"-+	c #F8A904",
";+	c #F8AC01",
">+	c #F8A003",
",+	c #FD7500",
"'+	c #FF5E02",
")+	c #FA4F0A",
"!+	c #FF2000",
"~+	c #FF6700",
"{+	c #FC8001",
"]+	c #FB8504",
"^+	c #FA8605",
"/+	c #FB8602",
"(+	c #FB8B00",
"_+	c #FA8A00",
":+	c #FC7800",
"<+	c #FF6900",
"[+	c #FD7400",
"}+	c #FD7002",
"|+	c #FE6703",
"1+	c #FE6202",
"2+	c #FF6002",
"3+	c #F94D0C",
"4+	c #FB5208",
"5+	c #FE6501",
"6+	c #FF6202",
"7+	c #FE5B05",
"8+	c #F74610",
"9+	c #FF1600",
"0+	c #FF2200",
"a+	c #FC5407",
"b+	c #FE5C05",
"c+	c #FB510F",
"d+	c #FF0D00",
"e+	c #FB5109",
"f+	c #FC570B",
"g+	c #FC560D",
"h+	c #FB550E",
"i+	c #FA5012",
"j+	c #F74818",
"k+	c #F43B16",
"l+	c #EF2A20",
"m+	c #FF1400",
"n+	c #FF5C04",
"o+	c #FF5C00",
"p+	c #FF4900",
"q+	c #FF3800",
"r+	c #FF3200",
"s+	c #FF3100",
"t+	c #FF2D00",
"u+	c #AC2643",
"v+	c #FD4D12",
"w+	c #FE5A07",
"x+	c #FD5A07",
"y+	c #FD570B",
"z+	c #FD5A08",
"A+	c #A72644",
"B+	c #B8223F",
"C+	c #FF3000",
"D+	c #FF3B00",
"E+	c #FF3C00",
"F+	c #FF3A00",
"G+	c #FF4700",
"H+	c #FF5000",
"I+	c #FB5311",
"J+	c #FA4E17",
"K+	c #FF3E00",
"L+	c #AF2248",
"M+	c #FF1200",
"N+	c #FF1500",
"O+	c #BF2148",
"P+	c #CA1D47",
"Q+	c #DA1947",
"R+	c #E8155A",
"S+	c #F32041",
"T+	c #D61A49",
"U+	c #F11C44",
"V+	c #E31349",
"W+	c #EB1D28",
"X+	c #E90D4D",
"Y+	c #EB1061",
"Z+	c #EB0F4E",
"`+	c #EF1B51",
" @	c #EB0E67",
".@	c #EE0E71",
"                                                                                                    ",
"                                                                                                    ",
"                                                                                                    ",
"                                                                                                    ",
"                                        . . . . . . . .                                             ",
"                                  + . . . . . @ @ . . . . #                                         ",
"                                . . . . . $ % & * . . . . . . .                                     ",
"                            = . . . $ - * ; > , ' . . . . . . . . )                                 ",
"                          ! . . @ % ~ { ] ^ / ( _ : < . . . . . . . [                               ",
"                        } . . $ | 1 2 3 4 5 6 7 8 9 0 a b . . . . . . c                             ",
"                      d . . @ | e f g h i j k l m n o p q r . . . . . . s                           ",
"                      . . . % t f u v w x y z l A B y C D E F G . . . . . H                         ",
"                    . . . $ I 2 J K K L M o N A A O P y p Q R f S . . . . .                         ",
"                  T . . . % U V W K X Y Z o `  .A N P D ..+.@.#.$.. . . . .                         ",
"                  . . . @ ~ 2 %.K &.*.=.-.D ;.l  .>.P D ,.'.*.&.).!.. . . . ~.                      ",
"                  . . . - 1 {.].K &.*.w ^./.k (.A _.P p :.w X &.<.[.. . . . .                       ",
"                . . . . & }.|.&.K &.1.2.3.4.5.l 6.7.P 8.x 9.K &.&.0.S . . . . .                     ",
"                . . . $ a.b.c.&.K &.1.d.:.e.5.l f.g.P o h.i.K &.&.j.k.* . . . .                     ",
"                . . . - { l.m.&.&.&.1.d.:.e.5. .5.n.y ..o.p.&.&.<.q.r.* . . . .                     ",
"                . . . s.t.u.<.&.&.&.*.v.w.4.f. .k x.D y.z.1.&.&.<.A.B.& . . . .                     ",
"                . . . | S C.&.&.&.&.X D.E./.f. .k F.o E.D.X &.&.<.C.G.H.@ . . .                     ",
"                . . @ H.I.C.<.K &.&.K i.M /.J.l k 4.K.o.L.K &.&.&.M.N.a.O.. . .                     ",
"                . . $ ~ P.C.<.K K &.K L.Q.P R.l k P :.z.v &.&.&.&.S.T.U.V.. . .                     ",
"                . . O.W.X.Y.<.&.K K X i.Q.Z.`.l  +o .+w *.&.&.&.&.++@+#+s.. . .                     ",
"                . . V.U.$+%+&.&.K K X &+*+=+-+;+>+K..+,+*.K K ].<.'+)+!+* . . .                     ",
"                . . % t @+).&.&.K K K ~+,+{+]+^+/+(+_+:+p.*.W ).<.'+)+!+* . . .                     ",
"                . . s.U )+m.&.&.K K &.*.<+L.&+&+L [+v.}+|+1+2+].<.%+3+#+% . . .                     ",
"                . . s.e 4+<.&.&.&.W 2+W X X K X *.v ~+5+6+W ].].<.7+8+9+- . . .                     ",
"                . . s.0+a+<.&.&.&.].).].&.&.&.&.&.K K ].2+].).'+b+c+k.d+$ . . .                     ",
"                . . V.#+e+<.&.&.&.&.<.&.&.&.&.&.&.].b+f+g+g+h+i+j+k+l+V.. . . .                     ",
"                . . O.m+8+n+&.&.&.&.].<.&.&.&.&.&.o+p+q+r+s+t+] t I % @ . . . u+                    ",
"                . . @ & e v+w+c.S.x+y+z+).<.&.].o+p+S 9+I ; d+| s.O.@ . . . . A+                    ",
"                B+. . $ H.#+C+D+E+q+2 F+G+H+I+J+K+G ; V.$ $ $ @ . . . . . . .                       ",
"                L+. . . $ s.d+M+W.a.I m+t t.G !+N+| O.. . . . . . . . . . . O+                      ",
"                  . . . . . @ $ $ $ $ O.V.s.* % O.@ . . . .     . . . . . .                         ",
"                  P+. . . . . . . . . . . . . . . . . . .         . . . . Q+                        ",
"                    . . . . . . . R+    . . . . . . . . .         S+. .                             ",
"                    T+. . . . . .           . . . . . . .           U+                              ",
"                      V+. . . .             . . . . . . .                                           ",
"                        . . . .             . . . . . .                                             ",
"                        . . . .             . . . . . W+                                            ",
"                        X+. .               . . . . W+Y+                                            ",
"                          Z+`+              . . . .  @                                              ",
"                                            . . . .@                                                ",
"                                            . . .                                                   ",
"                                            . . .                                                   ",
"                                              .                                                     ",
"                                                                                                    ",
"                                                                                                    ",
"                                                                                                    "};
