/* XPM */
static xpm_string_t U_xpm[] = {
"50 50 2 1",
" 	c None",
".	c #FFFFFF",
"          .........             .........         ",
"          .........             .........         ",
"          .........             .........         ",
"          .........             .........         ",
"          .........             .........         ",
"          .........             .........         ",
"          .........             .........         ",
"          .........             .........         ",
"          .........             .........         ",
"          .........             .........         ",
"          .........             .........         ",
"          .........             .........         ",
"          .........             .........         ",
"          .........             .........         ",
"          .........             .........         ",
"          .........             .........         ",
"          .........             .........         ",
"          .........             .........         ",
"          .........             .........         ",
"          .........             .........         ",
"          .........             .........         ",
"          .........             .........         ",
"          .........             .........         ",
"          .........             .........         ",
"          .........             .........         ",
"          ..........            ........          ",
"          ..........            ........          ",
"          ..........           .........          ",
"           .........           .........          ",
"           .........          ..........          ",
"            ..........        ..........          ",
"            ..........       ..........           ",
"            ..........................            ",
"             .........................            ",
"              ......................              ",
"               ....................               ",
"                  ...............                 ",
"                    ...........                   ",
"                                                  ",
"                                                  ",
"                                                  ",
"                                                  ",
"                                                  ",
"                                                  ",
"                                                  ",
"                                                  ",
"                                                  ",
"                                                  ",
"                                                  ",
"                                                  "};
